<svg width="128" height="128" viewBox="0 0 128 128" fill="none" xmlns="http://www.w3.org/2000/svg">
<g clip-path="url(#clip0_42_275)">
<path d="M15.091 41.64H22.091V74.043C18.501 74.725 15.864 74.998 13.001 74.998C4.455 74.998 0 71.134 0 63.724C0 56.588 4.728 51.952 12.046 51.952C13.182 51.952 14.046 52.042 15.091 52.315V41.64ZM15.091 57.95C14.273 57.678 13.591 57.587 12.728 57.587C9.182 57.587 7.137 59.769 7.137 63.587C7.137 67.314 9.091 69.36 12.682 69.36C13.455 69.36 14.092 69.314 15.092 69.178L15.091 57.95Z" fill="#092E20"/>
<path d="M15.241 52.315V41.79H21.941V73.9187C18.4202 74.5825 15.8202 74.848 13.001 74.848C8.74773 74.848 5.5385 73.8862 3.39403 72.0264C1.25334 70.17 0.15 67.3981 0.15 63.724C0.15 60.19 1.31999 57.2879 3.38364 55.2692C5.44761 53.2503 8.41903 52.102 12.046 52.102C13.1718 52.102 14.0228 52.191 15.0531 52.4601L15.241 52.5092V52.315ZM15.241 57.95L15.241 57.8418L15.1383 57.8077C14.3028 57.5298 13.6045 57.437 12.728 57.437C10.9236 57.437 9.48223 57.9931 8.49309 59.0529C7.50533 60.1113 6.987 61.6524 6.987 63.587C6.987 65.4754 7.48222 66.9611 8.45462 67.975C9.42797 68.9899 10.8583 69.51 12.682 69.51C13.4631 69.51 14.107 69.4634 15.1122 69.3266L15.242 69.309L15.242 69.178L15.241 57.95Z" stroke="#F2F2F2" stroke-opacity="0.4" stroke-width="0.3"/>
<path d="M33.227 52.45V68.678C33.227 74.268 32.818 76.95 31.591 79.268C30.454 81.497 28.954 82.905 25.863 84.451L19.363 81.36C22.454 79.905 23.953 78.633 24.908 76.678C25.908 74.678 26.228 72.36 26.228 66.268V52.45H33.227ZM26.227 41.677H33.227V48.859H26.227V41.677ZM37.456 54.041C40.546 52.587 43.501 51.951 46.729 51.951C50.319 51.951 52.683 52.905 53.729 54.769C54.319 55.814 54.501 57.178 54.501 60.087V74.314C51.365 74.769 47.411 75.087 44.501 75.087C38.638 75.087 36.001 73.041 36.001 68.496C36.001 63.586 39.501 61.314 48.092 60.586V59.041C48.092 57.768 47.456 57.314 45.683 57.314C43.093 57.314 40.183 58.041 37.455 59.451L37.456 54.041ZM48.41 65.178C43.774 65.632 42.274 66.36 42.274 68.178C42.274 69.541 43.138 70.178 45.047 70.178C46.092 70.178 47.047 70.088 48.41 69.86V65.178ZM57.912 53.541C62.048 52.451 65.457 51.951 68.912 51.951C72.503 51.951 75.094 52.768 76.64 54.36C78.095 55.86 78.549 57.495 78.549 60.996V74.723H71.549V61.27C71.549 58.588 70.639 57.588 68.139 57.588C67.185 57.588 66.322 57.678 64.912 58.088V74.724H57.912V53.541ZM81.269 78.541C83.724 79.814 86.178 80.405 88.769 80.405C93.359 80.405 95.314 78.541 95.314 74.086V73.95C93.951 74.632 92.587 74.905 90.769 74.905C84.632 74.905 80.723 70.859 80.723 64.45C80.723 56.495 86.496 51.995 96.723 51.995C99.723 51.995 102.496 52.313 105.86 52.995L103.463 58.045C101.599 57.681 103.313 57.995 101.905 57.859V58.587L101.995 61.541L102.041 65.359C102.087 66.314 102.087 67.269 102.132 68.223V70.133C102.132 76.133 101.632 78.95 100.132 81.268C97.95 84.678 94.178 86.36 88.814 86.36C86.086 86.36 83.724 85.95 81.268 84.996V78.54L81.269 78.541ZM95.179 57.631H94.451C93.088 57.586 91.497 57.949 90.405 58.631C88.724 59.586 87.86 61.313 87.86 63.768C87.86 67.268 89.587 69.268 92.678 69.268C93.633 69.268 94.406 69.086 95.314 68.814V66.404C95.314 65.587 95.269 64.677 95.269 63.723L95.224 60.496L95.178 58.177V57.632L95.179 57.631ZM116.727 51.86C123.727 51.86 128 56.269 128 63.405C128 70.724 123.546 75.315 116.454 75.315C109.454 75.315 105.136 70.905 105.136 63.815C105.136 56.45 109.591 51.86 116.727 51.86ZM116.59 69.678C119.272 69.678 120.864 67.45 120.864 63.587C120.864 59.769 119.318 57.496 116.637 57.496C113.863 57.496 112.272 59.724 112.272 63.586C112.272 67.451 113.863 69.678 116.59 69.678Z" fill="#092E20"/>
<path d="M26.378 66.268V52.6H33.077V68.678C33.077 74.2656 32.6669 76.9149 31.4584 79.1978L31.4574 79.1998C30.3467 81.3773 28.8877 82.7612 25.8613 84.2841L19.712 81.3599C22.6271 79.953 24.0965 78.6806 25.0425 76.7444C26.0601 74.7089 26.378 72.3567 26.378 66.268ZM45.683 57.164C43.1358 57.164 40.2883 57.8596 37.6051 59.2062L37.606 54.1364C40.6447 52.7204 43.553 52.101 46.729 52.101C50.3029 52.101 52.5933 53.0516 53.5982 54.8424L53.5984 54.8428C54.1666 55.8491 54.351 57.1749 54.351 60.087V74.1841C51.242 74.6283 47.3631 74.937 44.501 74.937C41.5815 74.937 39.4972 74.4265 38.1443 73.3773C36.8 72.3348 36.151 70.7384 36.151 68.496C36.151 67.2863 36.3666 66.248 36.816 65.3587C37.2651 64.4702 37.9518 63.7221 38.9069 63.0983C40.8232 61.8469 43.8145 61.099 48.1047 60.7355L48.242 60.7238V60.586V59.041C48.242 58.3806 48.0761 57.8907 47.6398 57.5782C47.218 57.2761 46.5735 57.164 45.683 57.164ZM48.56 65.178V65.0126L48.3954 65.0287C46.0782 65.2556 44.5192 65.5525 43.5377 66.0317C43.0434 66.273 42.6866 66.5647 42.4547 66.9249C42.2224 67.2858 42.124 67.7023 42.124 68.178C42.124 68.8942 42.3534 69.4457 42.8566 69.8106C43.3495 70.1679 44.0813 70.328 45.047 70.328C46.1024 70.328 47.066 70.2369 48.4348 70.0079L48.56 69.987V69.86V65.178ZM78.399 60.996V74.573H71.699V61.27C71.699 59.9194 71.4715 58.9499 70.8918 58.3215C70.309 57.6899 69.4035 57.438 68.139 57.438C67.1705 57.438 66.2934 57.5301 64.8702 57.944L64.762 57.9754V58.088V74.574H58.062V53.6567C62.1383 52.5896 65.5039 52.101 68.912 52.101C72.4859 52.101 75.0276 52.9149 76.5324 54.4644C77.2439 55.198 77.7078 55.9604 77.9959 56.9688C78.2855 57.9824 78.399 59.2497 78.399 60.996ZM81.418 78.7855C83.8214 79.9925 86.2302 80.555 88.769 80.555C91.0796 80.555 92.7632 80.0867 93.8668 79.0242C94.9718 77.9604 95.464 76.3316 95.464 74.086V73.95V73.7072L95.2469 73.8159C93.9094 74.4851 92.5696 74.755 90.769 74.755C87.7345 74.755 85.2644 73.7555 83.5527 71.9769C81.8405 70.1976 80.873 67.624 80.873 64.45C80.873 60.5125 82.2996 57.445 84.9801 55.3577C87.666 53.2661 91.6287 52.145 96.723 52.145C99.6551 52.145 102.37 52.4498 105.642 53.1041L103.377 57.8754C103.162 57.8332 103 57.8012 102.879 57.7774C102.781 57.758 102.71 57.744 102.66 57.7342C102.6 57.7228 102.562 57.7156 102.539 57.713C102.534 57.7124 102.523 57.7113 102.512 57.7114C102.506 57.7115 102.496 57.7119 102.483 57.7144C102.473 57.7162 102.444 57.7223 102.416 57.7456C102.338 57.7445 102.19 57.7358 101.919 57.7097L101.755 57.6938V57.859L101.755 58.587L101.755 58.5916L101.845 61.5428L101.845 61.5456L101.891 65.3608L101.891 65.3662C101.914 65.8416 101.926 66.3173 101.937 66.795L101.937 66.8113C101.949 67.2818 101.96 67.7541 101.982 68.2265V70.133C101.982 76.1312 101.48 78.9084 100.006 81.1865L100.006 81.1872C97.8602 84.54 94.1461 86.21 88.814 86.21C86.1384 86.21 83.821 85.8135 81.418 84.8931V78.7855ZM95.328 57.6941L95.5412 57.481H95.179H94.4535C93.0679 57.4358 91.449 57.8031 90.3282 58.5021C88.5896 59.4912 87.71 61.2765 87.71 63.768C87.71 65.5407 88.1473 66.9556 88.9969 67.9291C89.8492 68.9058 91.0986 69.418 92.678 69.418C93.6544 69.418 94.4437 69.2313 95.3571 68.9577L95.464 68.9257V68.814V66.404C95.464 66.0094 95.4536 65.5936 95.4428 65.1641L95.4415 65.1111C95.4302 64.6621 95.419 64.1979 95.4191 63.723L95.419 63.7209L95.374 60.4939L95.374 60.493L95.328 58.177V58.1756V57.6941ZM26.377 41.827H33.077V48.709H26.377V41.827ZM116.727 52.01C120.195 52.01 122.971 53.1014 124.881 55.0612C126.791 57.0214 127.85 59.8669 127.85 63.405C127.85 67.034 126.746 69.9711 124.779 72.0002C122.812 74.0288 119.967 75.165 116.454 75.165C112.986 75.165 110.198 74.0733 108.277 72.1186C106.356 70.1636 105.286 67.3294 105.286 63.815C105.286 60.1628 106.39 57.2145 108.363 55.1801C110.336 53.1461 113.192 52.01 116.727 52.01ZM116.59 69.828C117.979 69.828 119.093 69.2483 119.855 68.1676C120.613 67.0933 121.014 65.5361 121.014 63.587C121.014 61.6608 120.625 60.1042 119.879 59.0245C119.13 57.9381 118.026 57.346 116.637 57.346C115.204 57.346 114.067 57.9242 113.292 59.0054C112.523 60.0799 112.122 61.6375 112.122 63.586C112.122 65.5361 112.523 67.0938 113.286 68.1682C114.054 69.2493 115.18 69.828 116.59 69.828Z" stroke="#F2F2F2" stroke-opacity="0.4" stroke-width="0.3"/>
</g>
<defs>
<clipPath id="clip0_42_275">
<rect width="128" height="128" fill="white"/>
</clipPath>
</defs>
</svg>
