<svg width="90" height="90" viewBox="0 0 90 90" fill="none" xmlns="http://www.w3.org/2000/svg">
<rect width="90" height="90" rx="20" fill="#0ACF83"/>
<g clip-path="url(#clip0_48_276)">
<path d="M14.6314 31.772H18.9134V51.5935C16.7173 52.0107 15.1042 52.1777 13.3529 52.1777C8.12511 52.1777 5.3999 49.814 5.3999 45.2812C5.3999 40.9159 8.29211 38.08 12.7687 38.08C13.4636 38.08 13.9921 38.1351 14.6314 38.3021V31.772ZM14.6314 41.7491C14.131 41.5827 13.7138 41.5271 13.1859 41.5271C11.0167 41.5271 9.76574 42.8618 9.76574 45.1974C9.76574 47.4772 10.961 48.7288 13.1577 48.7288C13.6306 48.7288 14.0202 48.7007 14.632 48.6175L14.6314 41.7491Z" fill="#092E20"/>
<path d="M25.7255 38.3847V48.3117C25.7255 51.7312 25.4753 53.3718 24.7247 54.7898C24.0292 56.1533 23.1116 57.0146 21.2208 57.9603L17.2446 56.0695C19.1355 55.1795 20.0524 54.4014 20.6366 53.2054C21.2483 51.982 21.4441 50.564 21.4441 46.8375V38.3847H25.7255ZM21.4435 31.7947H25.7255V36.188H21.4435V31.7947ZM28.3125 39.358C30.2027 38.4685 32.0103 38.0795 33.9849 38.0795C36.181 38.0795 37.6271 38.6631 38.267 39.8033C38.6279 40.4425 38.7392 41.2769 38.7392 43.0564V51.7593C36.8209 52.0377 34.4021 52.2322 32.622 52.2322C29.0355 52.2322 27.4224 50.9806 27.4224 48.2004C27.4224 45.1968 29.5634 43.807 34.8187 43.3617V42.4166C34.8187 41.6378 34.4296 41.3601 33.3451 41.3601C31.7607 41.3601 29.9806 41.8048 28.3118 42.6674L28.3125 39.358ZM35.0132 46.1707C32.1773 46.4484 31.2597 46.8937 31.2597 48.0058C31.2597 48.8396 31.7882 49.2293 32.956 49.2293C33.5953 49.2293 34.1795 49.1742 35.0132 49.0347V46.1707ZM40.8258 39.0521C43.3558 38.3853 45.4412 38.0795 47.5547 38.0795C49.7514 38.0795 51.3363 38.5793 52.282 39.5531C53.1721 40.4707 53.4498 41.4708 53.4498 43.6125V52.0095H49.1678V43.7801C49.1678 42.1395 48.6111 41.5277 47.0818 41.5277C46.4982 41.5277 45.9703 41.5828 45.1078 41.8336V52.0101H40.8258V39.0521ZM55.1137 54.3451C56.6155 55.1238 58.1166 55.4853 59.7016 55.4853C62.5094 55.4853 63.7053 54.3451 63.7053 51.6199V51.5367C62.8715 51.9539 62.0371 52.1209 60.925 52.1209C57.1709 52.1209 54.7797 49.6459 54.7797 45.7253C54.7797 40.8591 58.3111 38.1064 64.5672 38.1064C66.4023 38.1064 68.0986 38.3009 70.1565 38.7181L68.6902 41.8073C67.5499 41.5846 68.5984 41.7767 67.7371 41.6935V42.1388L67.7922 43.9459L67.8203 46.2814C67.8485 46.8656 67.8485 47.4498 67.876 48.0334V49.2018C67.876 52.8721 67.5701 54.5953 66.6525 56.0132C65.3178 58.0992 63.0104 59.1281 59.7291 59.1281C58.0603 59.1281 56.6155 58.8773 55.1131 58.2937V54.3445L55.1137 54.3451ZM63.6227 41.554H63.1774C62.3436 41.5265 61.3704 41.7486 60.7024 42.1658C59.6741 42.75 59.1455 43.8064 59.1455 45.3082C59.1455 47.4492 60.202 48.6726 62.0928 48.6726C62.677 48.6726 63.1498 48.5613 63.7053 48.3949V46.9206C63.7053 46.4209 63.6778 45.8642 63.6778 45.2806L63.6502 43.3066L63.6221 41.888V41.5547L63.6227 41.554ZM76.804 38.0238C81.086 38.0238 83.6999 40.7209 83.6999 45.0861C83.6999 49.5633 80.9753 52.3717 76.637 52.3717C72.355 52.3717 69.7136 49.674 69.7136 45.3369C69.7136 40.8316 72.4388 38.0238 76.804 38.0238ZM76.7202 48.9234C78.3608 48.9234 79.3347 47.5605 79.3347 45.1974C79.3347 42.8619 78.389 41.4715 76.749 41.4715C75.0521 41.4715 74.0788 42.8344 74.0788 45.1968C74.0788 47.5611 75.0521 48.9234 76.7202 48.9234Z" fill="#092E20"/>
</g>
<defs>
<clipPath id="clip0_48_276">
<rect width="78.3" height="78.3" fill="white" transform="translate(5.3999 6.30005)"/>
</clipPath>
</defs>
</svg>
