<svg width="128" height="128" viewBox="0 0 128 128" fill="none" xmlns="http://www.w3.org/2000/svg">
<g clip-path="url(#clip0_42_275)">
<path d="M15.091 41.64H22.091V74.043C18.501 74.725 15.864 74.998 13.001 74.998C4.455 74.998 0 71.134 0 63.724C0 56.588 4.728 51.952 12.046 51.952C13.182 51.952 14.046 52.042 15.091 52.315V41.64ZM15.091 57.95C14.273 57.678 13.591 57.587 12.728 57.587C9.182 57.587 7.137 59.769 7.137 63.587C7.137 67.314 9.091 69.36 12.682 69.36C13.455 69.36 14.092 69.314 15.092 69.178L15.091 57.95Z" fill="#092E20"/>
<path d="M15.591 52.315V42.14H21.591V73.6281C18.2308 74.2496 15.7176 74.498 13.001 74.498C8.79377 74.498 5.68026 73.5458 3.62333 71.762C1.57904 69.9892 0.5 67.3261 0.5 63.724C0.5 60.2694 1.64195 57.4625 3.62838 55.5194C5.61588 53.5753 8.49376 52.452 12.046 52.452C13.1481 52.452 13.9686 52.5386 14.9646 52.7988L15.591 52.9624V52.315ZM15.591 57.95L15.591 57.5893L15.2488 57.4756C14.3722 57.1841 13.6358 57.087 12.728 57.087C10.8503 57.087 9.30718 57.6676 8.23721 58.8141C7.17184 59.9557 6.637 61.5925 6.637 63.587C6.637 65.5335 7.14789 67.1181 8.20201 68.2172C9.25932 69.3197 10.7924 69.86 12.682 69.86C13.482 69.86 14.142 69.8118 15.1594 69.6735L15.592 69.6146L15.592 69.178L15.591 57.95Z" stroke="white" stroke-opacity="0.6"/>
<path d="M33.227 52.45V68.678C33.227 74.268 32.818 76.95 31.591 79.268C30.454 81.497 28.954 82.905 25.863 84.451L19.363 81.36C22.454 79.905 23.953 78.633 24.908 76.678C25.908 74.678 26.228 72.36 26.228 66.268V52.45H33.227ZM26.227 41.677H33.227V48.859H26.227V41.677ZM37.456 54.041C40.546 52.587 43.501 51.951 46.729 51.951C50.319 51.951 52.683 52.905 53.729 54.769C54.319 55.814 54.501 57.178 54.501 60.087V74.314C51.365 74.769 47.411 75.087 44.501 75.087C38.638 75.087 36.001 73.041 36.001 68.496C36.001 63.586 39.501 61.314 48.092 60.586V59.041C48.092 57.768 47.456 57.314 45.683 57.314C43.093 57.314 40.183 58.041 37.455 59.451L37.456 54.041ZM48.41 65.178C43.774 65.632 42.274 66.36 42.274 68.178C42.274 69.541 43.138 70.178 45.047 70.178C46.092 70.178 47.047 70.088 48.41 69.86V65.178ZM57.912 53.541C62.048 52.451 65.457 51.951 68.912 51.951C72.503 51.951 75.094 52.768 76.64 54.36C78.095 55.86 78.549 57.495 78.549 60.996V74.723H71.549V61.27C71.549 58.588 70.639 57.588 68.139 57.588C67.185 57.588 66.322 57.678 64.912 58.088V74.724H57.912V53.541ZM81.269 78.541C83.724 79.814 86.178 80.405 88.769 80.405C93.359 80.405 95.314 78.541 95.314 74.086V73.95C93.951 74.632 92.587 74.905 90.769 74.905C84.632 74.905 80.723 70.859 80.723 64.45C80.723 56.495 86.496 51.995 96.723 51.995C99.723 51.995 102.496 52.313 105.86 52.995L103.463 58.045C101.599 57.681 103.313 57.995 101.905 57.859V58.587L101.995 61.541L102.041 65.359C102.087 66.314 102.087 67.269 102.132 68.223V70.133C102.132 76.133 101.632 78.95 100.132 81.268C97.95 84.678 94.178 86.36 88.814 86.36C86.086 86.36 83.724 85.95 81.268 84.996V78.54L81.269 78.541ZM95.179 57.631H94.451C93.088 57.586 91.497 57.949 90.405 58.631C88.724 59.586 87.86 61.313 87.86 63.768C87.86 67.268 89.587 69.268 92.678 69.268C93.633 69.268 94.406 69.086 95.314 68.814V66.404C95.314 65.587 95.269 64.677 95.269 63.723L95.224 60.496L95.178 58.177V57.632L95.179 57.631ZM116.727 51.86C123.727 51.86 128 56.269 128 63.405C128 70.724 123.546 75.315 116.454 75.315C109.454 75.315 105.136 70.905 105.136 63.815C105.136 56.45 109.591 51.86 116.727 51.86ZM116.59 69.678C119.272 69.678 120.864 67.45 120.864 63.587C120.864 59.769 119.318 57.496 116.637 57.496C113.863 57.496 112.272 59.724 112.272 63.586C112.272 67.451 113.863 69.678 116.59 69.678Z" fill="#092E20"/>
<path d="M26.728 66.268V52.95H32.727V68.678C32.727 74.2599 32.3142 76.833 31.1491 79.0341L31.1491 79.0341L31.1456 79.0408C30.0958 81.0989 28.731 82.4261 25.8563 83.8942L20.5116 81.3526C23.0461 80.0472 24.4374 78.7794 25.3563 76.8996C26.4149 74.7812 26.728 72.3492 26.728 66.268ZM45.683 56.814C43.2365 56.814 40.5318 57.44 37.9552 58.6474L37.956 54.3606C40.875 53.0322 43.6742 52.451 46.729 52.451C50.2654 52.451 52.3838 53.3935 53.293 55.0137L53.2936 55.0148C53.8109 55.931 54.001 57.1676 54.001 60.087V73.8798C50.9591 74.2993 47.2527 74.587 44.501 74.587C41.6094 74.587 39.6201 74.0789 38.3588 73.1008C37.1261 72.1448 36.501 70.6682 36.501 68.496C36.501 67.3279 36.709 66.3464 37.1284 65.5166C37.5464 64.6894 38.1883 63.9857 39.0983 63.3914C40.9386 62.1896 43.8563 61.4467 48.1343 61.0842L48.592 61.0454V60.586V59.041C48.592 58.3247 48.4098 57.6992 47.8436 57.2936C47.3258 56.9228 46.5827 56.814 45.683 56.814ZM48.91 65.178V64.6266L48.3613 64.6804C46.0461 64.9071 44.4287 65.2072 43.3842 65.7172C42.85 65.978 42.4362 66.3071 42.1604 66.7355C41.8832 67.1661 41.774 67.6528 41.774 68.178C41.774 68.9751 42.0345 69.6468 42.6512 70.0939C43.2334 70.516 44.0552 70.678 45.047 70.678C46.1267 70.678 47.1103 70.5844 48.4925 70.3532L48.91 70.2833V69.86V65.178ZM78.049 60.996V74.223H72.049V61.27C72.049 59.897 71.8215 58.813 71.149 58.0842C70.4664 57.3443 69.4371 57.088 68.139 57.088C67.1366 57.088 66.2266 57.185 64.7724 57.6079L64.412 57.7127V58.088V74.224H58.412V53.9274C62.3491 52.9132 65.6132 52.451 68.912 52.451C72.4459 52.451 74.8725 53.2577 76.2811 54.7081C76.9556 55.4034 77.3883 56.1161 77.6594 57.065C77.9354 58.0312 78.049 59.2596 78.049 60.996ZM81.768 84.6509V79.3435C84.0521 80.4059 86.3533 80.905 88.769 80.905C91.1158 80.905 92.91 80.4312 94.1096 79.2763C95.3136 78.1172 95.814 76.3738 95.814 74.086V73.95V73.1407L95.0903 73.5029C93.8124 74.1423 92.529 74.405 90.769 74.405C87.8136 74.405 85.4403 73.4335 83.8049 71.7342C82.1676 70.0328 81.223 67.5527 81.223 64.45C81.223 60.6057 82.6108 57.6463 85.1951 55.6339C87.7978 53.6071 91.6736 52.495 96.723 52.495C99.4956 52.495 102.074 52.7698 105.133 53.3607L103.178 57.4796C103.088 57.4619 103.011 57.4467 102.947 57.4339C102.848 57.4144 102.776 57.4003 102.726 57.3906C102.673 57.3802 102.618 57.3698 102.579 57.3653C102.569 57.3641 102.542 57.3611 102.508 57.3615C102.492 57.3617 102.458 57.3627 102.416 57.3708C102.402 57.3735 102.374 57.3793 102.338 57.3925C102.335 57.3923 102.331 57.3921 102.328 57.3919C102.246 57.3873 102.126 57.378 101.953 57.3613L101.405 57.3084V57.859V58.587V58.5946L101.405 58.6022L101.495 61.547L101.495 61.5562L101.541 65.365L101.541 65.3741L101.542 65.3831C101.564 65.8535 101.576 66.325 101.587 66.8033L101.587 66.8207C101.599 67.2874 101.61 67.7607 101.632 68.2347V70.133C101.632 76.127 101.126 78.8114 99.7123 80.9964L99.7109 80.9985C97.6507 84.2181 94.0717 85.86 88.814 85.86C86.2613 85.86 84.0478 85.4944 81.768 84.6509ZM95.678 57.8391L96.3861 57.131H95.179H94.4591C93.0207 57.0852 91.3368 57.4629 90.149 58.2014C88.2759 59.2701 87.36 61.1912 87.36 63.768C87.36 65.5938 87.8102 67.1016 88.7332 68.1593C89.6651 69.2272 91.0195 69.768 92.678 69.768C93.7044 69.768 94.5314 69.5704 95.4575 69.293L95.814 69.1862V68.814V66.404C95.814 66.0046 95.8035 65.5845 95.7927 65.1561L95.7914 65.1023C95.7801 64.653 95.769 64.1929 95.7691 63.723L95.769 63.716L95.724 60.489L95.7239 60.4861L95.678 58.177V58.1721V57.8391ZM26.727 42.177H32.727V48.359H26.727V42.177ZM116.727 52.36C120.12 52.36 122.799 53.4261 124.63 55.3054C126.463 57.1864 127.5 59.9366 127.5 63.405C127.5 66.9629 126.419 69.8058 124.528 71.7566C122.638 73.7057 119.889 74.815 116.454 74.815C113.061 74.815 110.37 73.7485 108.527 71.8733C106.683 69.997 105.636 67.2581 105.636 63.815C105.636 60.2333 106.718 57.3796 108.614 55.4237C110.51 53.4696 113.269 52.36 116.727 52.36ZM116.59 70.178C118.089 70.178 119.312 69.5454 120.141 68.3693C120.955 67.2149 121.364 65.5773 121.364 63.587C121.364 61.6207 120.967 59.9849 120.167 58.8257C119.352 57.6439 118.141 56.996 116.637 56.996C115.098 56.996 113.851 57.6238 113.008 58.8017C112.18 59.9573 111.772 61.5966 111.772 63.586C111.772 65.577 112.18 67.2158 113.001 68.3709C113.837 69.5481 115.071 70.178 116.59 70.178Z" stroke="white" stroke-opacity="0.6"/>
</g>
<defs>
<clipPath id="clip0_42_275">
<rect width="128" height="128" fill="white"/>
</clipPath>
</defs>
</svg>
