<svg width="128" height="128" viewBox="0 0 128 128" fill="none" xmlns="http://www.w3.org/2000/svg">
<g clip-path="url(#clip0_42_275)">
<path d="M15.091 41.64H22.091V74.043C18.501 74.725 15.864 74.998 13.001 74.998C4.455 74.998 0 71.134 0 63.724C0 56.588 4.728 51.952 12.046 51.952C13.182 51.952 14.046 52.042 15.091 52.315V41.64ZM15.091 57.95C14.273 57.678 13.591 57.587 12.728 57.587C9.182 57.587 7.137 59.769 7.137 63.587C7.137 67.314 9.091 69.36 12.682 69.36C13.455 69.36 14.092 69.314 15.092 69.178L15.091 57.95Z" fill="#092E20"/>
<path d="M15.341 52.315V41.89H21.841V73.8358C18.3662 74.4874 15.7909 74.748 13.001 74.748C8.76088 74.748 5.57901 73.7889 3.45954 71.9509C1.3464 70.1184 0.25 67.3776 0.25 63.724C0.25 60.2127 1.41198 57.3378 3.45357 55.3407C5.49569 53.3432 8.44038 52.202 12.046 52.202C13.165 52.202 14.0073 52.2903 15.0278 52.5569L15.341 52.6387V52.315ZM15.341 57.95L15.341 57.7697L15.1699 57.7128C14.3226 57.431 13.6134 57.337 12.728 57.337C10.9027 57.337 9.43221 57.9001 8.41998 58.9847C7.41004 60.0668 6.887 61.6353 6.887 63.587C6.887 65.492 7.3867 67.0059 8.38244 68.0442C9.37979 69.0841 10.8394 69.61 12.682 69.61C13.4685 69.61 14.117 69.5629 15.1257 69.4257L15.342 69.3963L15.342 69.178L15.341 57.95Z" stroke="#F2F2F2" stroke-opacity="0.4" stroke-width="0.5"/>
<path d="M33.227 52.45V68.678C33.227 74.268 32.818 76.95 31.591 79.268C30.454 81.497 28.954 82.905 25.863 84.451L19.363 81.36C22.454 79.905 23.953 78.633 24.908 76.678C25.908 74.678 26.228 72.36 26.228 66.268V52.45H33.227ZM26.227 41.677H33.227V48.859H26.227V41.677ZM37.456 54.041C40.546 52.587 43.501 51.951 46.729 51.951C50.319 51.951 52.683 52.905 53.729 54.769C54.319 55.814 54.501 57.178 54.501 60.087V74.314C51.365 74.769 47.411 75.087 44.501 75.087C38.638 75.087 36.001 73.041 36.001 68.496C36.001 63.586 39.501 61.314 48.092 60.586V59.041C48.092 57.768 47.456 57.314 45.683 57.314C43.093 57.314 40.183 58.041 37.455 59.451L37.456 54.041ZM48.41 65.178C43.774 65.632 42.274 66.36 42.274 68.178C42.274 69.541 43.138 70.178 45.047 70.178C46.092 70.178 47.047 70.088 48.41 69.86V65.178ZM57.912 53.541C62.048 52.451 65.457 51.951 68.912 51.951C72.503 51.951 75.094 52.768 76.64 54.36C78.095 55.86 78.549 57.495 78.549 60.996V74.723H71.549V61.27C71.549 58.588 70.639 57.588 68.139 57.588C67.185 57.588 66.322 57.678 64.912 58.088V74.724H57.912V53.541ZM81.269 78.541C83.724 79.814 86.178 80.405 88.769 80.405C93.359 80.405 95.314 78.541 95.314 74.086V73.95C93.951 74.632 92.587 74.905 90.769 74.905C84.632 74.905 80.723 70.859 80.723 64.45C80.723 56.495 86.496 51.995 96.723 51.995C99.723 51.995 102.496 52.313 105.86 52.995L103.463 58.045C101.599 57.681 103.313 57.995 101.905 57.859V58.587L101.995 61.541L102.041 65.359C102.087 66.314 102.087 67.269 102.132 68.223V70.133C102.132 76.133 101.632 78.95 100.132 81.268C97.95 84.678 94.178 86.36 88.814 86.36C86.086 86.36 83.724 85.95 81.268 84.996V78.54L81.269 78.541ZM95.179 57.631H94.451C93.088 57.586 91.497 57.949 90.405 58.631C88.724 59.586 87.86 61.313 87.86 63.768C87.86 67.268 89.587 69.268 92.678 69.268C93.633 69.268 94.406 69.086 95.314 68.814V66.404C95.314 65.587 95.269 64.677 95.269 63.723L95.224 60.496L95.178 58.177V57.632L95.179 57.631ZM116.727 51.86C123.727 51.86 128 56.269 128 63.405C128 70.724 123.546 75.315 116.454 75.315C109.454 75.315 105.136 70.905 105.136 63.815C105.136 56.45 109.591 51.86 116.727 51.86ZM116.59 69.678C119.272 69.678 120.864 67.45 120.864 63.587C120.864 59.769 119.318 57.496 116.637 57.496C113.863 57.496 112.272 59.724 112.272 63.586C112.272 67.451 113.863 69.678 116.59 69.678Z" fill="#092E20"/>
<path d="M26.478 66.268V52.7H32.977V68.678C32.977 74.264 32.5661 76.8915 31.3701 79.151L31.3701 79.151L31.3683 79.1544C30.2751 81.2976 28.8431 82.6653 25.86 84.1727L19.9426 81.3588C22.7447 79.9825 24.193 78.7106 25.1321 76.7889C26.1615 74.7296 26.478 72.3546 26.478 66.268ZM45.683 57.064C43.1645 57.064 40.3582 57.7392 37.7051 59.0449L37.706 54.2002C40.7105 52.8094 43.5876 52.201 46.729 52.201C50.2922 52.201 52.5334 53.1493 53.511 54.8913L53.5113 54.8919C54.065 55.8725 54.251 57.1728 54.251 60.087V74.0973C51.1606 74.5344 47.3314 74.837 44.501 74.837C41.5895 74.837 39.5323 74.3272 38.2056 73.2983C36.8932 72.2805 36.251 70.7184 36.251 68.496C36.251 67.2982 36.4644 66.2761 36.9053 65.4038C37.3455 64.5328 38.0194 63.7974 38.9616 63.1821C40.8562 61.9448 43.8264 61.1984 48.1131 60.8351L48.342 60.8157V60.586V59.041C48.342 58.3646 48.1714 57.836 47.698 57.4969C47.2488 57.1751 46.5761 57.064 45.683 57.064ZM48.66 65.178V64.9023L48.3857 64.9292C46.0691 65.1561 44.4934 65.4539 43.4939 65.9418C42.9881 66.1887 42.615 66.4911 42.3706 66.8708C42.1255 67.2516 42.024 67.6881 42.024 68.178C42.024 68.9173 42.2623 69.5032 42.7979 69.8915C43.3163 70.2674 44.0739 70.428 45.047 70.428C46.1094 70.428 47.0786 70.3362 48.4513 70.1066L48.66 70.0717V69.86V65.178ZM78.299 60.996V74.473H71.799V61.27C71.799 59.913 71.5715 58.9108 70.9653 58.2537C70.3539 57.5912 69.4131 57.338 68.139 57.338C67.1608 57.338 66.2743 57.4315 64.8422 57.8479L64.662 57.9003V58.088V74.474H58.162V53.7339C62.1986 52.682 65.5352 52.201 68.912 52.201C72.4745 52.201 74.9833 53.0129 76.4606 54.5341C77.1616 55.2567 77.6165 56.0049 77.8998 56.9963C78.1855 57.9963 78.299 59.2525 78.299 60.996ZM81.518 78.9468C83.8871 80.1111 86.2654 80.655 88.769 80.655C91.0899 80.655 92.8051 80.1851 93.9362 79.0962C95.0694 78.0052 95.564 76.3437 95.564 74.086V73.95V73.5454L95.2022 73.7264C93.8817 74.3871 92.558 74.655 90.769 74.655C87.7571 74.655 85.3147 73.6635 83.6248 71.9075C81.934 70.1505 80.973 67.6036 80.973 64.45C80.973 60.5391 82.3885 57.5025 85.0415 55.4366C87.7037 53.3636 91.6415 52.245 96.723 52.245C99.6097 52.245 102.286 52.5411 105.497 53.1772L103.32 57.7624C103.142 57.7275 103.004 57.7002 102.898 57.6792C102.8 57.6598 102.729 57.6458 102.679 57.6361C102.621 57.6249 102.578 57.6168 102.551 57.6137C102.544 57.6129 102.529 57.6113 102.511 57.6115C102.502 57.6116 102.485 57.6121 102.463 57.6162C102.452 57.6185 102.421 57.6249 102.386 57.6449C102.308 57.6423 102.168 57.6332 101.929 57.6102L101.655 57.5837V57.859L101.655 58.587L101.655 58.5946L101.745 61.544L101.745 61.5486L101.791 65.362L101.791 65.362L101.791 65.371C101.814 65.845 101.826 66.3195 101.837 66.7973L101.837 66.815C101.849 67.2841 101.86 67.7564 101.882 68.2289V70.133C101.882 76.13 101.379 78.8807 99.9221 81.1322L99.9215 81.1333C97.8004 84.4481 94.1249 86.11 88.814 86.11C86.1734 86.11 83.8857 85.7224 81.518 84.8242V78.9468ZM95.428 57.7356L95.7826 57.381H95.179H94.4551C93.0544 57.3356 91.417 57.7059 90.277 58.4162C88.4999 59.428 87.61 61.2521 87.61 63.768C87.61 65.5559 88.051 66.9973 88.9216 67.9949C89.7966 68.9976 91.076 69.518 92.678 69.518C93.6687 69.518 94.4687 69.3282 95.3858 69.0535L95.564 69.0001V68.814V66.404C95.564 66.008 95.5536 65.5908 95.5428 65.1616L95.5415 65.1086C95.5302 64.6595 95.519 64.1965 95.5191 63.723L95.519 63.7195L95.474 60.4925L95.474 60.491L95.428 58.177V58.1744V57.7356ZM26.477 41.927H32.977V48.609H26.477V41.927ZM116.727 52.11C120.174 52.11 122.922 53.1942 124.809 55.131C126.698 57.0686 127.75 59.8868 127.75 63.405C127.75 67.0137 126.653 69.9239 124.707 71.9306C122.762 73.9365 119.945 75.065 116.454 75.065C113.007 75.065 110.247 73.9805 108.348 72.0485C106.449 70.116 105.386 67.3091 105.386 63.815C105.386 60.1829 106.484 57.2617 108.435 55.2497C110.385 53.2386 113.214 52.11 116.727 52.11ZM116.59 69.928C118.01 69.928 119.156 69.3332 119.937 68.2252C120.711 67.1281 121.114 65.5479 121.114 63.587C121.114 61.6494 120.723 60.0701 119.962 58.9677C119.193 57.8541 118.059 57.246 116.637 57.246C115.174 57.246 114.005 57.8384 113.211 58.9472C112.425 60.0449 112.022 61.6258 112.022 63.586C112.022 65.5478 112.425 67.1287 113.205 68.2262C113.992 69.3347 115.149 69.928 116.59 69.928Z" stroke="#F2F2F2" stroke-opacity="0.4" stroke-width="0.5"/>
</g>
<defs>
<clipPath id="clip0_42_275">
<rect width="128" height="128" fill="white"/>
</clipPath>
</defs>
</svg>
