<svg width="50" height="50" viewBox="0 0 50 50" fill="none" xmlns="http://www.w3.org/2000/svg">
<rect width="50" height="50" rx="15" fill="#0ACF83"/>
<g clip-path="url(#clip0_48_276)">
<path d="M12.1264 18.886H14.0405V27.7462C13.0589 27.9327 12.3378 28.0073 11.555 28.0073C9.21816 28.0073 8 26.9508 8 24.9246C8 22.9733 9.29281 21.7057 11.2938 21.7057C11.6045 21.7057 11.8407 21.7303 12.1264 21.8049V18.886ZM12.1264 23.3458C11.9028 23.2714 11.7163 23.2465 11.4803 23.2465C10.5107 23.2465 9.95152 23.8431 9.95152 24.8871C9.95152 25.9062 10.4858 26.4657 11.4677 26.4657C11.6791 26.4657 11.8533 26.4531 12.1267 26.4159L12.1264 23.3458Z" fill="#092E20"/>
<path d="M17.0856 21.8417V26.2791C17.0856 27.8076 16.9738 28.541 16.6383 29.1748C16.3274 29.7843 15.9172 30.1693 15.072 30.592L13.2947 29.7468C14.1399 29.349 14.5498 29.0012 14.8109 28.4666C15.0843 27.9197 15.1718 27.2859 15.1718 25.6201V21.8417H17.0856ZM15.1716 18.896H17.0856V20.8598H15.1716V18.896ZM18.242 22.2768C19.0869 21.8792 19.8949 21.7053 20.7776 21.7053C21.7592 21.7053 22.4056 21.9662 22.6916 22.4758C22.853 22.7616 22.9027 23.1346 22.9027 23.93V27.8202C22.0452 27.9446 20.9641 28.0315 20.1683 28.0315C18.5652 28.0315 17.8441 27.4721 17.8441 26.2293C17.8441 24.8867 18.8012 24.2655 21.1503 24.0664V23.644C21.1503 23.2959 20.9764 23.1717 20.4916 23.1717C19.7833 23.1717 18.9876 23.3705 18.2417 23.7561L18.242 22.2768ZM21.2372 25.3221C19.9696 25.4462 19.5594 25.6453 19.5594 26.1424C19.5594 26.5151 19.7957 26.6892 20.3176 26.6892C20.6034 26.6892 20.8645 26.6646 21.2372 26.6023V25.3221ZM23.8354 22.1401C24.9664 21.842 25.8985 21.7053 26.8432 21.7053C27.8251 21.7053 28.5336 21.9287 28.9564 22.364C29.3542 22.7742 29.4784 23.2212 29.4784 24.1785V27.932H27.5643V24.2535C27.5643 23.5201 27.3155 23.2467 26.6319 23.2467C26.371 23.2467 26.135 23.2713 25.7495 23.3834V27.9323H23.8354V22.1401ZM30.2221 28.976C30.8934 29.3241 31.5644 29.4857 32.2729 29.4857C33.528 29.4857 34.0625 28.976 34.0625 27.7578V27.7206C33.6898 27.9071 33.3169 27.9818 32.8198 27.9818C31.1417 27.9818 30.0728 26.8754 30.0728 25.123C30.0728 22.9478 31.6514 21.7173 34.4478 21.7173C35.2681 21.7173 36.0264 21.8043 36.9462 21.9908L36.2908 23.3716C35.7811 23.2721 36.2498 23.358 35.8648 23.3208V23.5198L35.8894 24.3276L35.9019 25.3715C35.9145 25.6327 35.9145 25.8938 35.9268 26.1547V26.6769C35.9268 28.3176 35.7901 29.0878 35.38 29.7217C34.7833 30.6541 33.7519 31.114 32.2852 31.114C31.5392 31.114 30.8934 31.0019 30.2218 30.741V28.9757L30.2221 28.976ZM34.0256 23.2584H33.8266C33.4539 23.2461 33.0188 23.3454 32.7202 23.5319C32.2606 23.793 32.0243 24.2652 32.0243 24.9365C32.0243 25.8935 32.4966 26.4404 33.3417 26.4404C33.6029 26.4404 33.8142 26.3906 34.0625 26.3163V25.6573C34.0625 25.4339 34.0502 25.1851 34.0502 24.9242L34.0379 24.0418L34.0253 23.4077V23.2587L34.0256 23.2584ZM39.9176 21.6804C41.8317 21.6804 43.0001 22.886 43.0001 24.8372C43.0001 26.8385 41.7822 28.0939 39.843 28.0939C37.9289 28.0939 36.7482 26.888 36.7482 24.9494C36.7482 22.9355 37.9664 21.6804 39.9176 21.6804ZM39.8802 26.5525C40.6135 26.5525 41.0489 25.9433 41.0489 24.887C41.0489 23.843 40.6261 23.2215 39.893 23.2215C39.1345 23.2215 38.6995 23.8307 38.6995 24.8867C38.6995 25.9436 39.1345 26.5525 39.8802 26.5525Z" fill="#092E20"/>
</g>
<defs>
<clipPath id="clip0_48_276">
<rect x="8" y="7.5" width="35" height="35" rx="15" fill="white"/>
</clipPath>
</defs>
</svg>
