<svg width="90" height="90" viewBox="0 0 90 90" fill="none" xmlns="http://www.w3.org/2000/svg">
<rect width="90" height="90" rx="20" fill="#7A30A5"/>
<g clip-path="url(#clip0_49_317)">
<mask id="mask0_49_317" style="mask-type:luminance" maskUnits="userSpaceOnUse" x="6" y="34" width="79" height="22">
<path d="M85 34H6V56H85V34Z" fill="white"/>
</mask>
<g mask="url(#mask0_49_317)">
<path d="M16.2597 41.1046C16.4367 40.8456 16.6306 40.8127 16.7878 40.8127C16.945 40.8127 17.207 40.8456 17.3841 41.1046C18.7798 43.0064 21.0835 46.7949 22.7829 49.5895C23.8911 51.412 24.7423 52.8118 24.917 52.9899C25.5725 53.6587 26.4716 53.2419 26.994 52.4834C27.5084 51.7366 27.6511 51.2122 27.6511 50.6528C27.6511 50.2718 20.1997 36.5232 19.4493 35.3788C18.7276 34.278 18.4925 34 17.2574 34H16.3331C15.1016 34 14.9236 34.278 14.2019 35.3788C13.4515 36.5232 6 50.2718 6 50.6528C6 51.2122 6.14279 51.7366 6.65713 52.4834C7.17957 53.2419 8.07864 53.6587 8.73418 52.9899C8.90883 52.8118 9.76002 51.412 10.8683 49.5895C12.5676 46.7949 14.864 43.0064 16.2597 41.1046Z" fill="white"/>
<path d="M32.8311 35.2153V52.0939H43.1979V48.6699H36.4075V45.1013H42.4488V41.6774H36.4075V38.6393H43.1979V35.2153H32.8311Z" fill="white"/>
<path d="M57.0309 52.0938L52.7295 45.9693L56.7409 40.2548H52.6811L50.6996 43.0518L48.7422 40.2548H44.6342L48.6456 45.9934L44.3684 52.0938H48.4281L50.6754 48.8869L52.9228 52.0938H57.0309Z" fill="white"/>
<path d="M65.6765 40.0137C64.0333 40.0137 62.7525 40.6888 61.9309 41.9185V40.2548H58.5237V56.0001H61.9309V50.4301C62.7525 51.6599 64.0333 52.335 65.6765 52.335C68.7455 52.335 71.1861 49.5621 71.1861 46.1623C71.1861 42.7625 68.7455 40.0137 65.6765 40.0137ZM64.9033 49.0799C63.2358 49.0799 61.9309 47.826 61.9309 46.1623C61.9309 44.5227 63.2358 43.2447 64.9033 43.2447C66.5465 43.2447 67.8755 44.5468 67.8755 46.1623C67.8755 47.8019 66.5465 49.0799 64.9033 49.0799Z" fill="white"/>
<path d="M78.6183 40.0137C75.1143 40.0137 72.4561 42.666 72.4561 46.1864C72.4561 49.7068 75.1143 52.335 78.6183 52.335C82.0977 52.335 84.7803 49.7068 84.7803 46.1864C84.7803 42.666 82.0977 40.0137 78.6183 40.0137ZM78.6183 43.2688C80.2128 43.2688 81.4456 44.4985 81.4456 46.1864C81.4456 47.826 80.2128 49.0799 78.6183 49.0799C76.9988 49.0799 75.7909 47.826 75.7909 46.1864C75.7909 44.4985 76.9988 43.2688 78.6183 43.2688Z" fill="white"/>
</g>
</g>
<defs>
<clipPath id="clip0_49_317">
<rect width="79" height="22" fill="white" transform="translate(6 34)"/>
</clipPath>
</defs>
</svg>
