<svg width="50" height="50" viewBox="0 0 50 50" fill="none" xmlns="http://www.w3.org/2000/svg">
<rect width="50" height="50" rx="15" fill="#7A30A5"/>
<g clip-path="url(#clip0_49_317)">
<mask id="mask0_49_317" style="mask-type:luminance" maskUnits="userSpaceOnUse" x="3" y="19" width="45" height="13">
<path d="M48 19H3V31.5316H48V19Z" fill="white"/>
</mask>
<g mask="url(#mask0_49_317)">
<path d="M8.84412 23.0469C8.94497 22.8994 9.05538 22.8807 9.14495 22.8807C9.23451 22.8807 9.38372 22.8994 9.48462 23.0469C10.2796 24.1302 11.5919 26.2882 12.5599 27.8801C13.1912 28.9182 13.676 29.7156 13.7755 29.817C14.1489 30.198 14.661 29.9606 14.9586 29.5285C15.2516 29.1031 15.3329 28.8044 15.3329 28.4858C15.3329 28.2688 11.0884 20.4372 10.661 19.7854C10.2499 19.1584 10.116 19 9.41242 19H8.88592C8.18443 19 8.08307 19.1584 7.67195 19.7854C7.24453 20.4372 3 28.2688 3 28.4858C3 28.8044 3.08133 29.1031 3.37431 29.5285C3.67191 29.9606 4.18403 30.198 4.55744 29.817C4.65693 29.7156 5.14178 28.9182 5.77305 27.8801C6.74105 26.2882 8.04912 24.1302 8.84412 23.0469Z" fill="white"/>
<path d="M18.2834 19.6923V29.3066H24.1886V27.3563H20.3206V25.3235H23.7619V23.3732H20.3206V21.6426H24.1886V19.6923H18.2834Z" fill="white"/>
<path d="M32.0683 29.3066L29.6181 25.818L31.9031 22.5629H29.5906L28.4619 24.1561L27.3469 22.5629H25.0068L27.2918 25.8317L24.8555 29.3066H27.168L28.4481 27.4799L29.7282 29.3066H32.0683Z" fill="white"/>
<path d="M36.9929 22.4254C36.0569 22.4254 35.3273 22.81 34.8593 23.5105V22.5628H32.9185V31.5316H34.8593V28.3588C35.3273 29.0593 36.0569 29.4439 36.9929 29.4439C38.741 29.4439 40.1312 27.8644 40.1312 25.9278C40.1312 23.9912 38.741 22.4254 36.9929 22.4254ZM36.5524 27.5897C35.6026 27.5897 34.8593 26.8755 34.8593 25.9278C34.8593 24.9938 35.6026 24.2659 36.5524 24.2659C37.4884 24.2659 38.2455 25.0076 38.2455 25.9278C38.2455 26.8617 37.4884 27.5897 36.5524 27.5897Z" fill="white"/>
<path d="M44.3649 22.4254C42.3689 22.4254 40.8547 23.9362 40.8547 25.9415C40.8547 27.9468 42.3689 29.4439 44.3649 29.4439C46.3468 29.4439 47.8749 27.9468 47.8749 25.9415C47.8749 23.9362 46.3468 22.4254 44.3649 22.4254ZM44.3649 24.2796C45.2731 24.2796 45.9754 24.9801 45.9754 25.9415C45.9754 26.8755 45.2731 27.5897 44.3649 27.5897C43.4424 27.5897 42.7543 26.8755 42.7543 25.9415C42.7543 24.9801 43.4424 24.2796 44.3649 24.2796Z" fill="white"/>
</g>
</g>
<defs>
<clipPath id="clip0_49_317">
<rect width="45" height="12.5316" fill="white" transform="translate(3 19)"/>
</clipPath>
</defs>
</svg>
