<svg width="50" height="50" viewBox="0 0 50 50" fill="none" xmlns="http://www.w3.org/2000/svg">
<rect width="50" height="50" rx="15" fill="#1E1E1E"/>
<g clip-path="url(#clip0_48_277)">
<path d="M25 25C25 23.6739 25.5268 22.4021 26.4645 21.4645C27.4021 20.5268 28.6739 20 30 20C31.3261 20 32.5979 20.5268 33.5355 21.4645C34.4732 22.4021 35 23.6739 35 25C35 26.3261 34.4732 27.5979 33.5355 28.5355C32.5979 29.4732 31.3261 30 30 30C28.6739 30 27.4021 29.4732 26.4645 28.5355C25.5268 27.5979 25 26.3261 25 25V25Z" fill="#1ABCFE"/>
<path d="M15 35C15 33.6739 15.5268 32.4021 16.4645 31.4645C17.4021 30.5268 18.6739 30 20 30H25V35C25 36.3261 24.4732 37.5979 23.5355 38.5355C22.5979 39.4732 21.3261 40 20 40C18.6739 40 17.4021 39.4732 16.4645 38.5355C15.5268 37.5979 15 36.3261 15 35V35Z" fill="#0ACF83"/>
<path d="M25 10V20H30C31.3261 20 32.5979 19.4732 33.5355 18.5355C34.4732 17.5979 35 16.3261 35 15C35 13.6739 34.4732 12.4021 33.5355 11.4645C32.5979 10.5268 31.3261 10 30 10H25Z" fill="#FF7262"/>
<path d="M15 15C15 16.3261 15.5268 17.5979 16.4645 18.5355C17.4021 19.4732 18.6739 20 20 20H25V10H20C18.6739 10 17.4021 10.5268 16.4645 11.4645C15.5268 12.4021 15 13.6739 15 15V15Z" fill="#F24E1E"/>
<path d="M15 25C15 26.3261 15.5268 27.5979 16.4645 28.5355C17.4021 29.4732 18.6739 30 20 30H25V20H20C18.6739 20 17.4021 20.5268 16.4645 21.4645C15.5268 22.4021 15 23.6739 15 25V25Z" fill="#A259FF"/>
</g>
<defs>
<clipPath id="clip0_48_277">
<rect width="20" height="30" fill="white" transform="translate(15 10)"/>
</clipPath>
</defs>
</svg>
