<svg width="90" height="90" viewBox="0 0 90 90" fill="none" xmlns="http://www.w3.org/2000/svg">
<rect width="90" height="90" rx="20" fill="#1E1E1E"/>
<g clip-path="url(#clip0_49_300)">
<mask id="mask0_49_300" style="mask-type:luminance" maskUnits="userSpaceOnUse" x="15" y="15" width="60" height="60">
<path d="M75 15H15V75H75V15Z" fill="white"/>
</mask>
<g mask="url(#mask0_49_300)">
<path d="M61.2003 32.4999L59.5253 31.9749C59.5253 31.5999 59.7002 31.1999 59.8002 30.8249C61.0502 24.6749 60.2252 19.7249 57.3002 18.0999C54.3752 16.4749 50.1752 18.0999 45.6752 22.0749C45.2502 22.4499 44.8003 22.8499 44.4003 23.2499L43.6503 22.4999C38.9503 18.2249 34.2502 16.4499 31.4252 18.0999C28.6002 19.7499 27.9002 24.3249 28.9252 30.1499C29.0252 30.7333 29.1502 31.3083 29.3002 31.8749C28.6502 32.0499 28.0002 32.2499 27.3752 32.4749C21.8752 34.3749 17.9252 37.4749 17.9252 40.525C17.9252 43.575 22.1252 46.975 27.9252 48.925L29.3252 49.375C29.1752 50 29.0502 50.6 28.9252 51.225C27.8502 56.95 28.6752 61.5 31.4252 63.05C34.1752 64.6 38.9253 63.05 43.4503 59.025L44.5252 58.025C44.9752 58.475 45.4503 58.875 45.9253 59.3C50.3503 63.1 54.7253 64.625 57.4253 63.075C60.1253 61.525 61.1003 56.575 59.9253 50.575C59.9253 50.1 59.7252 49.65 59.6252 49.175L60.6003 48.875C66.5503 46.9 70.8502 43.725 70.8502 40.45C70.8502 37.175 66.8253 34.3499 61.2003 32.4999ZM47.2502 23.6749C51.0752 20.3249 54.7502 18.9999 56.3002 19.9499C57.8502 20.8999 58.8003 24.9499 57.6253 30.2999C57.6253 30.6499 57.4752 30.9999 57.3752 31.3499C55.0872 30.8213 52.7648 30.4538 50.4253 30.2499C49.093 28.321 47.6223 26.4911 46.0252 24.7749C46.4252 24.3749 46.8252 24.0249 47.2502 23.6749ZM35.3002 45.875C35.8252 46.775 36.3752 47.675 36.9252 48.55C35.3252 48.375 33.7252 48.1 32.1502 47.775C32.6002 46.275 33.1752 44.75 33.8252 43.175C34.3002 44.075 34.7752 44.975 35.3002 45.875ZM32.1752 33.3749C33.6502 33.0499 35.2503 32.7749 36.8753 32.5749C36.3253 33.4249 35.8002 34.2583 35.3002 35.0749C34.7752 35.9499 34.3002 36.85 33.8252 37.75C33.1957 36.2803 32.6449 34.7782 32.1752 33.2499V33.3749ZM35.0002 40.575C35.6752 39.1499 36.4253 37.7499 37.2003 36.3749C37.9753 34.9999 38.8503 33.6749 39.7003 32.3749C41.2503 32.3749 42.8252 32.1999 44.4502 32.1999C46.0752 32.1999 47.6503 32.1999 49.1753 32.3749C50.0503 33.6749 50.9003 34.8749 51.6753 36.3499C52.4503 37.8249 53.2252 39.1249 53.9252 40.525C53.2252 41.95 52.5003 43.35 51.7003 44.725C50.9003 46.1 50.0002 47.5 49.2252 48.75C47.6752 48.875 46.0753 48.925 44.4753 48.925C42.8753 48.925 41.2752 48.925 39.7502 48.775C38.8502 47.475 38.0252 46.125 37.2502 44.75C36.4752 43.375 35.7002 42 35.0002 40.575ZM53.6503 45.85C54.1753 44.95 54.6503 44.025 55.1503 43.1C55.8003 44.6 56.3752 46.1 56.9002 47.675C55.3002 48.025 53.6752 48.3 52.0502 48.5C52.6002 47.625 53.1253 46.75 53.6503 45.85ZM55.1253 37.95C54.642 37.05 54.142 36.1499 53.6252 35.2499C53.1252 34.3749 52.6002 33.4999 52.0502 32.7499C53.6472 32.9393 55.233 33.2146 56.8003 33.5749C56.317 35.0609 55.758 36.5212 55.1253 37.95ZM44.4753 26.3499C45.5558 27.505 46.5658 28.7239 47.5003 29.9999C45.4835 29.9999 43.4502 29.9999 41.4002 29.9999C42.3632 28.7323 43.3895 27.5141 44.4753 26.3499ZM32.5002 19.9999C34.2252 18.9749 38.0752 20.4249 42.1252 24.0249L42.9253 24.7499C41.3273 26.4807 39.8487 28.3183 38.5002 30.2499C36.1712 30.4596 33.8582 30.8186 31.5752 31.3249C31.5752 30.7999 31.3252 30.2499 31.2252 29.7249C30.2502 24.7249 30.8752 20.9499 32.5002 19.9999ZM30.0002 47.225L28.7252 46.825C26.3906 46.1282 24.1923 45.0375 22.2252 43.6C21.7085 43.249 21.2705 42.7945 20.9391 42.265C20.6077 41.7357 20.3901 41.143 20.3002 40.525C20.3002 38.6249 23.5502 36.2249 28.2502 34.5749L30.0002 33.9999C30.6924 36.2427 31.5275 38.4389 32.5002 40.575C31.5277 42.7367 30.6927 44.9577 30.0002 47.225ZM42.0502 57.35C40.3442 58.9012 38.3705 60.1295 36.2252 60.975C35.6487 61.257 35.0198 61.416 34.3785 61.442C33.7372 61.4677 33.0976 61.3597 32.5002 61.125C30.8752 60.175 30.1752 56.525 31.1002 51.625C31.1002 51.05 31.3502 50.475 31.5002 49.9C33.8075 50.3957 36.1465 50.7297 38.5002 50.9C39.865 52.834 41.3513 54.6795 42.9503 56.425L41.9753 57.35H42.0502ZM44.5502 54.85C43.4465 53.653 42.4035 52.4015 41.4252 51.1H44.4753C44.4753 51.1 46.5753 51.1 47.6003 51.1C46.6503 52.5 45.6252 53.625 44.5502 54.825V54.85ZM58.0253 57.95C57.9825 58.5762 57.8092 59.187 57.5165 59.7422C57.2237 60.2977 56.818 60.7857 56.3252 61.175C54.7002 62.125 51.2003 60.9 47.4253 57.65L46.1002 56.475C47.682 54.7322 49.1358 52.8772 50.4503 50.925C52.8243 50.7335 55.1807 50.366 57.5002 49.825C57.5002 50.25 57.7002 50.675 57.7752 51.075C58.2835 53.323 58.3683 55.646 58.0253 57.925V57.95ZM60.0002 46.825L59.1003 47.1C58.388 44.8467 57.5107 42.649 56.4752 40.525C57.4547 38.4173 58.29 36.2457 58.9752 34.0249L60.5253 34.4999C65.3503 36.1499 68.7253 38.6249 68.7253 40.5C68.7253 42.375 65.0002 45.125 60.0002 46.825ZM44.5502 45.275C45.4815 45.2602 46.3875 44.9705 47.1545 44.4425C47.9218 43.9142 48.5155 43.1712 48.8617 42.3067C49.208 41.4422 49.2907 40.4945 49.1002 39.583C48.9095 38.6715 48.4535 37.8366 47.79 37.1833C47.1263 36.5299 46.2842 36.0873 45.3697 35.911C44.4552 35.7347 43.5092 35.8325 42.6502 36.1922C41.7912 36.5519 41.0575 37.1575 40.5417 37.9328C40.0257 38.7082 39.7503 39.6187 39.7502 40.55C39.7502 41.1705 39.8724 41.785 40.11 42.3582C40.3472 42.9315 40.6955 43.4522 41.1343 43.891C41.573 44.3297 42.0938 44.6777 42.667 44.9152C43.2403 45.1527 43.8548 45.275 44.4753 45.275H44.5502ZM20.7002 69.575C21.165 69.4175 21.5656 69.1125 21.8409 68.7062C22.1162 68.3 22.2512 67.815 22.2252 67.325C22.2473 66.991 22.1978 66.656 22.08 66.3427C21.9622 66.0295 21.7788 65.7447 21.5421 65.5082C21.3054 65.2715 21.0208 65.088 20.7075 64.9702C20.3941 64.8525 20.0593 64.8027 19.7252 64.825H16.5002V72.725H17.7252V69.775H19.4502L21.0502 72.8H22.5002L20.7002 69.575ZM19.4752 68.725H17.7252V65.975H19.4502C19.6438 65.9495 19.8405 65.9665 20.0268 66.0245C20.2132 66.0825 20.3848 66.1802 20.5297 66.311C20.6747 66.4415 20.7896 66.6022 20.8665 66.7815C20.9434 66.961 20.9805 67.1547 20.9752 67.35C20.9843 67.5437 20.9506 67.7375 20.8766 67.9167C20.8026 68.0962 20.6901 68.2572 20.547 68.3885C20.4039 68.5197 20.2337 68.6177 20.0485 68.676C19.8633 68.734 19.6676 68.7507 19.4752 68.725ZM27.9502 70.125V69.725C27.9502 67.85 26.9502 66.7 25.2752 66.7C24.8794 66.6967 24.4875 66.7782 24.1258 66.9392C23.764 67.1 23.4409 67.3362 23.1781 67.6322C22.9152 67.9282 22.7188 68.277 22.6019 68.6552C22.4849 69.0335 22.4503 69.4322 22.5002 69.825C22.4495 70.2152 22.484 70.612 22.6013 70.9877C22.7185 71.3635 22.9158 71.7092 23.1795 72.0015C23.4432 72.2937 23.7671 72.5255 24.1289 72.6805C24.4907 72.8355 24.8818 72.9105 25.2752 72.9C25.8235 72.9267 26.3654 72.7725 26.8172 72.4607C27.2691 72.149 27.6057 71.697 27.7752 71.175H26.7502C26.6099 71.4222 26.4 71.6227 26.1467 71.7515C25.8933 71.8805 25.6077 71.932 25.3252 71.9C25.1054 71.9042 24.887 71.8622 24.6843 71.777C24.4816 71.6917 24.299 71.5647 24.1483 71.4047C23.9976 71.2445 23.8821 71.0545 23.8092 70.8472C23.7363 70.6397 23.7077 70.4192 23.7252 70.2L27.9502 70.125ZM25.2752 67.625C25.4752 67.6175 25.6746 67.6522 25.8603 67.7267C26.046 67.8015 26.2139 67.9145 26.3531 68.0582C26.4923 68.2022 26.5995 68.3737 26.668 68.5617C26.7364 68.75 26.7644 68.9502 26.7502 69.15H23.7252C23.7509 68.7587 23.9262 68.3925 24.2148 68.127C24.5035 67.8617 24.8832 67.7177 25.2752 67.725V67.625ZM30.8502 66.6C29.5002 66.6 28.5252 67.275 28.3502 68.3H29.5002C29.5002 67.875 30.0752 67.625 30.7502 67.625C31.4252 67.625 31.9502 68 31.9502 68.625V69.125H30.3502C28.9252 69.125 28.1252 69.825 28.1252 70.9C28.1275 71.153 28.1824 71.4027 28.2864 71.6335C28.3904 71.864 28.5412 72.0705 28.7293 72.24C28.9174 72.4092 29.1386 72.5375 29.3789 72.6167C29.6192 72.6957 29.8734 72.7242 30.1252 72.7C30.4791 72.7152 30.8306 72.6352 31.1429 72.468C31.4552 72.301 31.7167 72.053 31.9002 71.75V72.6H33.0252V68.725C33.1752 67.5 32.3252 66.7 30.8502 66.7V66.6ZM32.0002 70.5C31.9877 70.6862 31.938 70.8682 31.8541 71.035C31.7702 71.2017 31.6537 71.3502 31.5116 71.4712C31.3695 71.5925 31.2046 71.684 31.0266 71.7402C30.8487 71.7967 30.6612 71.817 30.4752 71.8C29.8252 71.8 29.3502 71.475 29.3502 70.95C29.3502 70.425 29.7252 70.15 30.5502 70.1H32.0002V70.5ZM37.9253 68.675C37.8439 68.367 37.6563 68.0975 37.3955 67.9145C37.1347 67.7315 36.8176 67.6467 36.5002 67.675C35.5252 67.675 34.9252 68.425 34.9252 69.7C34.9252 70.975 35.5252 71.75 36.5002 71.75C36.8159 71.79 37.1353 71.713 37.398 71.5332C37.6606 71.3535 37.8482 71.0837 37.9253 70.775H39.0753C38.9942 71.367 38.6905 71.9062 38.2261 72.2822C37.7616 72.6585 37.1713 72.8437 36.5753 72.8C36.1773 72.8147 35.7809 72.7422 35.4141 72.5872C35.0472 72.4322 34.7187 72.199 34.4518 71.9032C34.1849 71.6077 33.986 71.2575 33.8691 70.8767C33.7522 70.496 33.7202 70.0942 33.7752 69.7C33.7367 69.3197 33.7785 68.9355 33.8981 68.5725C34.0176 68.2095 34.2122 67.8757 34.4692 67.5927C34.7262 67.3097 35.0398 67.084 35.3898 66.9302C35.7397 66.7765 36.118 66.698 36.5002 66.7C37.0958 66.6912 37.6749 66.8955 38.1332 67.276C38.5916 67.6565 38.899 68.188 39.0002 68.775L37.9253 68.675ZM41.2503 65.25V66.75H42.5003V67.75H41.2503V70.825C41.2503 71.425 41.5003 71.7 42.1003 71.7H42.5003V72.675C42.2928 72.701 42.0828 72.701 41.8753 72.675C40.5753 72.675 40.0502 72.225 40.0502 71.075V67.85H39.1252V66.85H40.0003V65.35L41.2503 65.25ZM45.4503 72.75V65H46.5503L50.6002 70.6V65H51.7753V72.9H50.6752L46.6252 67.275V72.9L45.4503 72.75ZM55.2252 66.65C53.8752 66.65 52.9003 67.325 52.7253 68.35H53.8753C53.8753 67.925 54.4503 67.675 55.1253 67.675C55.8003 67.675 56.3252 68.05 56.3252 68.675V69.175H54.7252C53.3002 69.175 52.5003 69.875 52.5003 70.95C52.5025 71.203 52.5575 71.4527 52.6615 71.6835C52.7655 71.914 52.9163 72.1205 53.1043 72.29C53.2925 72.4592 53.5135 72.5875 53.754 72.6667C53.9943 72.7457 54.2485 72.7742 54.5003 72.75C54.854 72.7652 55.2055 72.6852 55.518 72.518C55.8302 72.351 56.0917 72.103 56.2752 71.8V72.65H57.5002V68.725C57.5002 67.5 56.7252 66.7 55.2252 66.7V66.65ZM56.3753 70.55C56.3628 70.7362 56.313 70.9182 56.229 71.085C56.1453 71.2517 56.0288 71.4002 55.8868 71.5212C55.7445 71.6425 55.5797 71.734 55.4017 71.7902C55.2237 71.8467 55.0362 71.867 54.8502 71.85C54.2002 71.85 53.7252 71.525 53.7252 71C53.7252 70.475 54.1003 70.2 54.9253 70.15H56.3753V70.55ZM60.0002 65.35V66.85H61.3002V67.85H60.0002V70.925C60.0002 71.525 60.2752 71.8 60.8502 71.8H61.3002V72.775C61.0845 72.8032 60.866 72.8032 60.6502 72.775C59.3502 72.775 58.8252 72.325 58.8252 71.175V67.85H57.8753V66.85H58.8252V65.35H60.0002ZM61.7002 65.075C61.685 64.9182 61.718 64.7607 61.7945 64.6232C61.871 64.4857 61.9877 64.3747 62.1287 64.3052C62.27 64.2355 62.429 64.2105 62.5847 64.2335C62.7402 64.2565 62.8855 64.3262 63.0005 64.4337C63.1155 64.541 63.195 64.681 63.2288 64.8347C63.2623 64.9885 63.2485 65.1487 63.1887 65.2945C63.129 65.44 63.0263 65.564 62.8945 65.6497C62.7625 65.7357 62.6075 65.7792 62.4503 65.775C62.3465 65.7825 62.2425 65.7675 62.145 65.7312C62.0477 65.6947 61.9592 65.638 61.8857 65.5645C61.8122 65.491 61.7555 65.4025 61.719 65.305C61.6827 65.2077 61.6677 65.1037 61.6752 65L61.7002 65.075ZM61.8752 66.825H63.0503V72.8H61.8752V66.825ZM66.8752 72.8H65.6252L63.4753 66.825H64.7253L66.2003 71.525L67.6753 66.825H68.9253L66.8752 72.8ZM74.3752 70.125V69.725C74.4297 69.3447 74.4007 68.9572 74.2905 68.5892C74.1805 68.2212 73.9915 67.8817 73.7372 67.594C73.4827 67.3062 73.1688 67.0772 72.817 66.923C72.4653 66.7685 72.0842 66.6925 71.7002 66.7C71.3065 66.7002 70.9175 66.7845 70.5587 66.947C70.2 67.1092 69.88 67.3462 69.6198 67.6417C69.3598 67.9372 69.1655 68.2847 69.05 68.6612C68.9345 69.0377 68.9005 69.4345 68.9502 69.825C68.8955 70.214 68.9262 70.61 69.0405 70.986C69.1547 71.3617 69.3495 71.7082 69.6112 72.001C69.8732 72.2937 70.1958 72.5257 70.5565 72.681C70.9173 72.8362 71.3075 72.911 71.7002 72.9C72.2485 72.9267 72.7905 72.7725 73.2422 72.4607C73.694 72.149 74.0307 71.697 74.2002 71.175H73.0503C72.9195 71.4247 72.715 71.6282 72.4645 71.758C72.214 71.8877 71.9298 71.9372 71.6503 71.9C71.4303 71.9042 71.212 71.8622 71.0092 71.777C70.8067 71.6917 70.624 71.5647 70.4733 71.4047C70.3225 71.2445 70.207 71.0545 70.1342 70.8472C70.0612 70.6397 70.0327 70.4192 70.0502 70.2L74.3752 70.125ZM71.7002 67.625C71.8992 67.6212 72.0968 67.6585 72.2808 67.7345C72.4648 67.8105 72.631 67.9235 72.7695 68.0667C72.9077 68.2097 73.0152 68.3797 73.085 68.566C73.1547 68.7525 73.1855 68.9512 73.1752 69.15H70.0002C70.0257 68.763 70.1975 68.4005 70.4808 68.1357C70.764 67.871 71.1375 67.7242 71.5252 67.725L71.7002 67.625Z" fill="#61DAFB"/>
</g>
</g>
<defs>
<clipPath id="clip0_49_300">
<rect width="60" height="60" fill="white" transform="translate(15 15)"/>
</clipPath>
</defs>
</svg>
