<svg width="50" height="50" viewBox="0 0 50 50" fill="none" xmlns="http://www.w3.org/2000/svg">
<rect width="50" height="50" rx="15" fill="#1E1E1E"/>
<g clip-path="url(#clip0_49_300)">
<mask id="mask0_49_300" style="mask-type:luminance" maskUnits="userSpaceOnUse" x="5" y="5" width="40" height="40">
<path d="M45 5H5V45H45V5Z" fill="white"/>
</mask>
<g mask="url(#mask0_49_300)">
<path d="M35.8003 16.6667L34.6836 16.3167C34.6836 16.0667 34.8002 15.8 34.8669 15.55C35.7002 11.45 35.1502 8.14999 33.2002 7.06666C31.2502 5.98333 28.4502 7.06666 25.4502 9.71666C25.1669 9.96666 24.8669 10.2333 24.6002 10.5L24.1002 9.99999C20.9669 7.14999 17.8336 5.96666 15.9502 7.06666C14.0669 8.16666 13.6002 11.2167 14.2836 15.1C14.3502 15.4889 14.4336 15.8722 14.5336 16.25C14.1002 16.3667 13.6669 16.5 13.2502 16.65C9.58358 17.9167 6.95025 19.9833 6.95025 22.0167C6.95025 24.05 9.75025 26.3167 13.6169 27.6167L14.5502 27.9167C14.4502 28.3334 14.3669 28.7334 14.2836 29.15C13.5669 32.9667 14.1169 36 15.9502 37.0334C17.7836 38.0667 20.9502 37.0334 23.9669 34.35L24.6836 33.6834C24.9836 33.9834 25.3002 34.25 25.6169 34.5334C28.5669 37.0667 31.4836 38.0834 33.2836 37.05C35.0836 36.0167 35.7336 32.7167 34.9503 28.7167C34.9503 28.4 34.8169 28.1 34.7502 27.7834L35.4003 27.5834C39.3669 26.2667 42.2336 24.15 42.2336 21.9667C42.2336 19.7833 39.5503 17.9 35.8003 16.6667ZM26.5002 10.7833C29.0502 8.54999 31.5002 7.66666 32.5336 8.29999C33.5669 8.93332 34.2002 11.6333 33.4169 15.2C33.4169 15.4333 33.3169 15.6667 33.2502 15.9C31.7249 15.5476 30.1766 15.3025 28.6169 15.1667C27.7287 13.8807 26.7482 12.6608 25.6836 11.5167C25.9502 11.25 26.2169 11.0167 26.5002 10.7833ZM18.5336 25.5834C18.8836 26.1834 19.2502 26.7834 19.6169 27.3667C18.5502 27.25 17.4836 27.0667 16.4336 26.85C16.7336 25.85 17.1169 24.8334 17.5502 23.7834C17.8669 24.3834 18.1836 24.9834 18.5336 25.5834ZM16.4502 17.25C17.4336 17.0333 18.5002 16.85 19.5836 16.7167C19.2169 17.2833 18.8669 17.8389 18.5336 18.3833C18.1836 18.9667 17.8669 19.5667 17.5502 20.1667C17.1305 19.1869 16.7634 18.1855 16.4502 17.1667V17.25ZM18.3336 22.05C18.7836 21.1 19.2836 20.1667 19.8002 19.25C20.3169 18.3333 20.9002 17.45 21.4669 16.5833C22.5002 16.5833 23.5502 16.4667 24.6336 16.4667C25.7169 16.4667 26.7669 16.4667 27.7836 16.5833C28.3669 17.45 28.9336 18.25 29.4502 19.2333C29.9669 20.2167 30.4836 21.0833 30.9502 22.0167C30.4836 22.9667 30.0002 23.9 29.4669 24.8167C28.9336 25.7334 28.3336 26.6667 27.8169 27.5C26.7836 27.5834 25.7169 27.6167 24.6502 27.6167C23.5836 27.6167 22.5169 27.6167 21.5002 27.5167C20.9002 26.65 20.3502 25.75 19.8336 24.8334C19.3169 23.9167 18.8002 23 18.3336 22.05ZM30.7669 25.5667C31.1169 24.9667 31.4336 24.35 31.7669 23.7334C32.2003 24.7334 32.5836 25.7334 32.9336 26.7834C31.8669 27.0167 30.7836 27.2 29.7002 27.3334C30.0669 26.75 30.4169 26.1667 30.7669 25.5667ZM31.7502 20.3C31.4281 19.7 31.0947 19.1 30.7502 18.5C30.4169 17.9167 30.0669 17.3333 29.7002 16.8333C30.7649 16.9595 31.8221 17.1431 32.8669 17.3833C32.5447 18.374 32.1721 19.3475 31.7502 20.3ZM24.6502 12.5667C25.3706 13.3367 26.0439 14.1493 26.6669 15C25.3224 15 23.9669 15 22.6002 15C23.2422 14.1549 23.9264 13.3428 24.6502 12.5667ZM16.6669 8.33332C17.8169 7.64999 20.3836 8.61666 23.0836 11.0167L23.6169 11.5C22.5516 12.6539 21.5659 13.8789 20.6669 15.1667C19.1142 15.3064 17.5722 15.5458 16.0502 15.8833C16.0502 15.5333 15.8836 15.1667 15.8169 14.8167C15.1669 11.4833 15.5836 8.96666 16.6669 8.33332ZM15.0002 26.4834L14.1502 26.2167C12.5938 25.7522 11.1283 25.025 9.81691 24.0667C9.47245 23.8327 9.18045 23.5297 8.95951 23.1767C8.73856 22.8239 8.59351 22.4287 8.53358 22.0167C8.53358 20.75 10.7002 19.15 13.8336 18.05L15.0002 17.6667C15.4617 19.1618 16.0184 20.6259 16.6669 22.05C16.0185 23.4912 15.4619 24.9719 15.0002 26.4834ZM23.0336 33.2334C21.8962 34.2675 20.5804 35.0864 19.1502 35.65C18.7659 35.838 18.3466 35.944 17.9191 35.9614C17.4916 35.9785 17.0651 35.9065 16.6669 35.75C15.5836 35.1167 15.1169 32.6834 15.7336 29.4167C15.7336 29.0334 15.9002 28.65 16.0002 28.2667C17.5384 28.5972 19.0977 28.8199 20.6669 28.9334C21.5767 30.2227 22.5676 31.453 23.6336 32.6167L22.9836 33.2334H23.0336ZM24.7002 31.5667C23.9644 30.7687 23.2691 29.9344 22.6169 29.0667H24.6502C24.6502 29.0667 26.0502 29.0667 26.7336 29.0667C26.1002 30 25.4169 30.75 24.7002 31.55V31.5667ZM33.6836 33.6334C33.6551 34.0509 33.5396 34.458 33.3444 34.8282C33.1492 35.1985 32.8787 35.5239 32.5502 35.7834C31.4669 36.4167 29.1336 35.6 26.6169 33.4334L25.7336 32.65C26.7881 31.4882 27.7572 30.2515 28.6336 28.95C30.2162 28.8224 31.7872 28.5774 33.3336 28.2167C33.3336 28.5 33.4669 28.7834 33.5169 29.05C33.8557 30.5487 33.9122 32.0974 33.6836 33.6167V33.6334ZM35.0002 26.2167L34.4003 26.4C33.9254 24.8979 33.3406 23.4327 32.6502 22.0167C33.3032 20.6116 33.8601 19.1638 34.3169 17.6833L35.3502 18C38.5669 19.1 40.8169 20.75 40.8169 22C40.8169 23.25 38.3336 25.0834 35.0002 26.2167ZM24.7002 25.1834C25.3211 25.1735 25.9251 24.9804 26.4364 24.6284C26.9479 24.2762 27.3437 23.7809 27.5746 23.2045C27.8054 22.6282 27.8606 21.9964 27.7336 21.3887C27.6064 20.781 27.3024 20.2244 26.8601 19.7889C26.4176 19.3533 25.8562 19.0582 25.2466 18.9407C24.6369 18.8232 24.0062 18.8884 23.4336 19.1282C22.8609 19.368 22.3717 19.7717 22.0279 20.2886C21.6839 20.8055 21.5003 21.4125 21.5002 22.0334C21.5002 22.447 21.5817 22.8567 21.7401 23.2389C21.8982 23.621 22.1304 23.9682 22.4229 24.2607C22.7154 24.5532 23.0626 24.7852 23.4447 24.9435C23.8269 25.1019 24.2366 25.1834 24.6502 25.1834H24.7002ZM8.80025 41.3834C9.1101 41.2784 9.37713 41.075 9.56068 40.8042C9.74421 40.5334 9.8342 40.21 9.81691 39.8834C9.83165 39.6607 9.79863 39.4374 9.72008 39.2285C9.64153 39.0197 9.51926 38.8299 9.36146 38.6722C9.20366 38.5144 9.01396 38.392 8.80506 38.3135C8.59618 38.235 8.37293 38.2019 8.15025 38.2167H6.00024V43.4834H6.81691V41.5167H7.96691L9.03358 43.5334H10.0002L8.80025 41.3834ZM7.98358 40.8167H6.81691V38.9834H7.96691C8.09593 38.9664 8.22708 38.9777 8.35131 39.0164C8.47556 39.055 8.58995 39.1202 8.68658 39.2074C8.78321 39.2944 8.85981 39.4015 8.91108 39.521C8.96236 39.6407 8.9871 39.7699 8.98358 39.9C8.98961 40.0292 8.96716 40.1584 8.91785 40.2779C8.86851 40.3975 8.7935 40.5049 8.6981 40.5924C8.6027 40.6799 8.48925 40.7452 8.36578 40.784C8.24231 40.8227 8.11183 40.8339 7.98358 40.8167ZM13.6336 41.75V41.4834C13.6336 40.2334 12.9669 39.4667 11.8502 39.4667C11.5863 39.4645 11.3251 39.5189 11.0839 39.6262C10.8428 39.7334 10.6274 39.8909 10.4521 40.0882C10.2769 40.2855 10.1459 40.518 10.068 40.7702C9.99005 41.0224 9.96695 41.2882 10.0002 41.55C9.96645 41.8102 9.98943 42.0747 10.0676 42.3252C10.1458 42.5757 10.2773 42.8062 10.4531 43.001C10.6289 43.1959 10.8448 43.3504 11.086 43.4537C11.3272 43.557 11.5879 43.607 11.8502 43.6C12.2158 43.6179 12.577 43.515 12.8782 43.3072C13.1795 43.0994 13.4039 42.798 13.5169 42.45H12.8336C12.74 42.6149 12.6001 42.7485 12.4312 42.8344C12.2623 42.9204 12.0719 42.9547 11.8836 42.9334C11.737 42.9362 11.5914 42.9082 11.4563 42.8514C11.3212 42.7945 11.1994 42.7099 11.099 42.6032C10.9985 42.4964 10.9215 42.3697 10.8729 42.2315C10.8243 42.0932 10.8052 41.9462 10.8169 41.8L13.6336 41.75ZM11.8502 40.0834C11.9836 40.0784 12.1165 40.1015 12.2403 40.1512C12.3641 40.201 12.476 40.2764 12.5688 40.3722C12.6616 40.4682 12.7331 40.5825 12.7787 40.7079C12.8243 40.8334 12.843 40.9669 12.8336 41.1H10.8169C10.834 40.8392 10.9509 40.595 11.1433 40.418C11.3357 40.2412 11.5889 40.1452 11.8502 40.15V40.0834ZM15.5669 39.4C14.6669 39.4 14.0169 39.85 13.9002 40.5334H14.6669C14.6669 40.25 15.0502 40.0834 15.5002 40.0834C15.9502 40.0834 16.3002 40.3334 16.3002 40.75V41.0834H15.2336C14.2836 41.0834 13.7502 41.55 13.7502 42.2667C13.7518 42.4354 13.7884 42.6019 13.8577 42.7557C13.927 42.9094 14.0276 43.047 14.1529 43.16C14.2783 43.2729 14.4258 43.3584 14.586 43.4112C14.7462 43.4639 14.9157 43.4829 15.0836 43.4667C15.3195 43.4769 15.5538 43.4235 15.762 43.312C15.9702 43.2007 16.1446 43.0354 16.2669 42.8334V43.4H17.0169V40.8167C17.1169 40 16.5502 39.4667 15.5669 39.4667V39.4ZM16.3336 42C16.3252 42.1242 16.2921 42.2455 16.2361 42.3567C16.1802 42.4679 16.1026 42.5669 16.0078 42.6475C15.9131 42.7284 15.8032 42.7894 15.6845 42.8269C15.5659 42.8645 15.4409 42.878 15.3169 42.8667C14.8836 42.8667 14.5669 42.65 14.5669 42.3C14.5669 41.95 14.8169 41.7667 15.3669 41.7334H16.3336V42ZM20.2836 40.7834C20.2293 40.578 20.1042 40.3984 19.9304 40.2764C19.7565 40.1544 19.5451 40.0979 19.3336 40.1167C18.6836 40.1167 18.2836 40.6167 18.2836 41.4667C18.2836 42.3167 18.6836 42.8334 19.3336 42.8334C19.544 42.86 19.757 42.8087 19.9321 42.6889C20.1072 42.569 20.2322 42.3892 20.2836 42.1834H21.0502C20.9962 42.578 20.7938 42.9375 20.4841 43.1882C20.1745 43.439 19.781 43.5625 19.3836 43.5334C19.1183 43.5432 18.854 43.4949 18.6095 43.3915C18.3649 43.2882 18.1459 43.1327 17.968 42.9355C17.79 42.7385 17.6574 42.505 17.5795 42.2512C17.5015 41.9974 17.4802 41.7295 17.5169 41.4667C17.4912 41.2132 17.5191 40.957 17.5988 40.715C17.6785 40.473 17.8082 40.2505 17.9796 40.0619C18.1509 39.8732 18.36 39.7227 18.5933 39.6202C18.8265 39.5177 19.0788 39.4654 19.3336 39.4667C19.7306 39.4609 20.1167 39.597 20.4222 39.8507C20.7278 40.1044 20.9328 40.4587 21.0002 40.85L20.2836 40.7834ZM22.5002 38.5V39.5H23.3336V40.1667H22.5002V42.2167C22.5002 42.6167 22.6669 42.8 23.0669 42.8H23.3336V43.45C23.1952 43.4674 23.0552 43.4674 22.9169 43.45C22.0502 43.45 21.7002 43.15 21.7002 42.3834V40.2334H21.0836V39.5667H21.6669V38.5667L22.5002 38.5ZM25.3002 43.5V38.3334H26.0336L28.7336 42.0667V38.3334H29.5169V43.6H28.7836L26.0836 39.85V43.6L25.3002 43.5ZM31.8169 39.4334C30.9169 39.4334 30.2669 39.8834 30.1502 40.5667H30.9169C30.9169 40.2834 31.3002 40.1167 31.7502 40.1167C32.2002 40.1167 32.5502 40.3667 32.5502 40.7834V41.1167H31.4836C30.5336 41.1167 30.0002 41.5834 30.0002 42.3C30.0017 42.4687 30.0384 42.6352 30.1077 42.789C30.1771 42.9427 30.2776 43.0804 30.4029 43.1934C30.5284 43.3062 30.6757 43.3917 30.8361 43.4445C30.9962 43.4972 31.1657 43.5162 31.3336 43.5C31.5694 43.5102 31.8037 43.4569 32.0121 43.3454C32.2202 43.234 32.3946 43.0687 32.5169 42.8667V43.4334H33.3336V40.8167C33.3336 40 32.8169 39.4667 31.8169 39.4667V39.4334ZM32.5836 42.0334C32.5752 42.1575 32.5421 42.2789 32.4861 42.39C32.4302 42.5012 32.3526 42.6002 32.2579 42.6809C32.1631 42.7617 32.0532 42.8227 31.9346 42.8602C31.8159 42.8979 31.6909 42.9114 31.5669 42.9C31.1336 42.9 30.8169 42.6834 30.8169 42.3334C30.8169 41.9834 31.0669 41.8 31.6169 41.7667H32.5836V42.0334ZM35.0002 38.5667V39.5667H35.8669V40.2334H35.0002V42.2834C35.0002 42.6834 35.1836 42.8667 35.5669 42.8667H35.8669V43.5167C35.7231 43.5355 35.5774 43.5355 35.4336 43.5167C34.5669 43.5167 34.2169 43.2167 34.2169 42.45V40.2334H33.5836V39.5667H34.2169V38.5667H35.0002ZM36.1336 38.3834C36.1234 38.2789 36.1454 38.1739 36.1964 38.0822C36.2474 37.9905 36.3252 37.9165 36.4192 37.8702C36.5134 37.8237 36.6194 37.807 36.7232 37.8224C36.8269 37.8377 36.9237 37.8842 37.0004 37.9559C37.0771 38.0274 37.1301 38.1207 37.1526 38.2232C37.1749 38.3257 37.1657 38.4325 37.1259 38.5297C37.0861 38.6267 37.0176 38.7094 36.9298 38.7665C36.8418 38.8239 36.7384 38.8529 36.6336 38.85C36.5644 38.855 36.4951 38.845 36.4301 38.8209C36.3652 38.7965 36.3062 38.7587 36.2572 38.7097C36.2082 38.6607 36.1704 38.6017 36.1461 38.5367C36.1219 38.4719 36.1119 38.4025 36.1169 38.3334L36.1336 38.3834ZM36.2502 39.55H37.0336V43.5334H36.2502V39.55ZM39.5836 43.5334H38.7502L37.3169 39.55H38.1503L39.1336 42.6834L40.1169 39.55H40.9503L39.5836 43.5334ZM44.5836 41.75V41.4834C44.6199 41.2299 44.6006 40.9715 44.5271 40.7262C44.4537 40.4809 44.3277 40.2545 44.1582 40.0627C43.9886 39.8709 43.7793 39.7182 43.5448 39.6154C43.3103 39.5124 43.0562 39.4617 42.8002 39.4667C42.5377 39.4669 42.2784 39.523 42.0392 39.6314C41.8001 39.7395 41.5868 39.8975 41.4133 40.0945C41.2399 40.2915 41.1104 40.5232 41.0334 40.7742C40.9564 41.0252 40.9337 41.2897 40.9669 41.55C40.9304 41.8094 40.9509 42.0734 41.0271 42.324C41.1032 42.5745 41.2331 42.8055 41.4076 43.0007C41.5822 43.1959 41.7973 43.3505 42.0378 43.454C42.2783 43.5575 42.5384 43.6074 42.8002 43.6C43.1657 43.6179 43.5271 43.515 43.8282 43.3072C44.1294 43.0994 44.3539 42.798 44.4669 42.45H43.7003C43.6131 42.6165 43.4767 42.7522 43.3097 42.8387C43.1427 42.9252 42.9533 42.9582 42.7669 42.9334C42.6203 42.9362 42.4747 42.9082 42.3396 42.8514C42.2046 42.7945 42.0828 42.7099 41.9823 42.6032C41.8818 42.4964 41.8047 42.3697 41.7562 42.2315C41.7076 42.0932 41.6886 41.9462 41.7002 41.8L44.5836 41.75ZM42.8002 40.0834C42.9329 40.0809 43.0646 40.1057 43.1873 40.1564C43.3099 40.207 43.4207 40.2824 43.5131 40.3779C43.6052 40.4732 43.6769 40.5865 43.7234 40.7107C43.7699 40.835 43.7904 40.9675 43.7836 41.1H41.6669C41.6839 40.842 41.7984 40.6004 41.9873 40.4239C42.1761 40.2474 42.4251 40.1495 42.6836 40.15L42.8002 40.0834Z" fill="#61DAFB"/>
</g>
</g>
<defs>
<clipPath id="clip0_49_300">
<rect width="40" height="40" fill="white" transform="translate(5 5)"/>
</clipPath>
</defs>
</svg>
