<svg width="24" height="24" viewBox="0 0 24 24" fill="none" xmlns="http://www.w3.org/2000/svg">
<g clip-path="url(#clip0_40_273)">
<path d="M18.4801 6.99998L17.8101 6.78998C17.8101 6.63998 17.8801 6.47998 17.9201 6.32998C18.4201 3.86998 18.0901 1.88998 16.9201 1.23998C15.7501 0.589985 14.0701 1.23998 12.2701 2.82998C12.1001 2.97998 11.9201 3.13998 11.7601 3.29998L11.4601 2.99998C9.5801 1.28998 7.7001 0.579984 6.5701 1.23998C5.4401 1.89998 5.1601 3.72998 5.5701 6.05998C5.6101 6.29332 5.6601 6.52332 5.7201 6.74998C5.4601 6.81998 5.2001 6.89998 4.9501 6.98998C2.7501 7.74998 1.1701 8.98998 1.1701 10.21C1.1701 11.43 2.8501 12.79 5.1701 13.57L5.7301 13.75C5.6701 14 5.6201 14.24 5.5701 14.49C5.1401 16.78 5.4701 18.6 6.5701 19.22C7.6701 19.84 9.5701 19.22 11.3801 17.61L11.8101 17.21C11.9901 17.39 12.1801 17.55 12.3701 17.72C14.1401 19.24 15.8901 19.85 16.9701 19.23C18.0501 18.61 18.4401 16.63 17.9701 14.23C17.9701 14.04 17.8901 13.86 17.8501 13.67L18.2401 13.55C20.6201 12.76 22.3401 11.49 22.3401 10.18C22.3401 8.86999 20.7301 7.73998 18.4801 6.99998ZM12.9001 3.46998C14.4301 2.12998 15.9001 1.59998 16.5201 1.97998C17.1401 2.35998 17.5201 3.97998 17.0501 6.11998C17.0501 6.25998 16.9901 6.39998 16.9501 6.53998C16.0349 6.32854 15.1059 6.18151 14.1701 6.09998C13.6372 5.32839 13.0489 4.59646 12.4101 3.90998C12.5701 3.74998 12.7301 3.60998 12.9001 3.46998ZM8.1201 12.35C8.3301 12.71 8.5501 13.07 8.7701 13.42C8.1301 13.35 7.4901 13.24 6.8601 13.11C7.0401 12.51 7.2701 11.9 7.5301 11.27C7.7201 11.63 7.9101 11.99 8.1201 12.35ZM6.8701 7.34998C7.4601 7.21998 8.1001 7.10998 8.7501 7.02998C8.5301 7.36998 8.3201 7.70332 8.1201 8.02998C7.9101 8.37998 7.7201 8.73999 7.5301 9.09999C7.27828 8.51214 7.05797 7.91128 6.8701 7.29998V7.34998ZM8.0001 10.23C8.2701 9.65998 8.5701 9.09998 8.8801 8.54998C9.1901 7.99998 9.5401 7.46998 9.8801 6.94998C10.5001 6.94998 11.1301 6.87998 11.7801 6.87998C12.4301 6.87998 13.0601 6.87998 13.6701 6.94998C14.0201 7.46998 14.3601 7.94998 14.6701 8.53998C14.9801 9.12998 15.2901 9.64998 15.5701 10.21C15.2901 10.78 15.0001 11.34 14.6801 11.89C14.3601 12.44 14.0001 13 13.6901 13.5C13.0701 13.55 12.4301 13.57 11.7901 13.57C11.1501 13.57 10.5101 13.57 9.9001 13.51C9.5401 12.99 9.2101 12.45 8.9001 11.9C8.5901 11.35 8.2801 10.8 8.0001 10.23ZM15.4601 12.34C15.6701 11.98 15.8601 11.61 16.0601 11.24C16.3201 11.84 16.5501 12.44 16.7601 13.07C16.1201 13.21 15.4701 13.32 14.8201 13.4C15.0401 13.05 15.2501 12.7 15.4601 12.34ZM16.0501 9.17999C15.8568 8.81999 15.6568 8.45998 15.4501 8.09998C15.2501 7.74998 15.0401 7.39998 14.8201 7.09998C15.4589 7.17571 16.0932 7.28587 16.7201 7.42998C16.5268 8.02439 16.3032 8.6085 16.0501 9.17999ZM11.7901 4.53998C12.2223 5.00202 12.6263 5.48956 13.0001 5.99998C12.1934 5.99998 11.3801 5.99998 10.5601 5.99998C10.9453 5.49294 11.3558 5.00565 11.7901 4.53998ZM7.0001 1.99998C7.6901 1.58998 9.2301 2.16998 10.8501 3.60998L11.1701 3.89998C10.5309 4.5923 9.93948 5.32733 9.4001 6.09998C8.4685 6.18383 7.54327 6.32746 6.6301 6.52998C6.6301 6.31998 6.5301 6.09998 6.4901 5.88998C6.1001 3.88998 6.3501 2.37998 7.0001 1.99998ZM6.0001 12.89L5.4901 12.73C4.55625 12.4513 3.67691 12.015 2.8901 11.44C2.68342 11.2996 2.50822 11.1178 2.37566 10.906C2.24309 10.6943 2.15606 10.4572 2.1201 10.21C2.1201 9.44998 3.4201 8.48998 5.3001 7.82998L6.0001 7.59998C6.27697 8.49709 6.61099 9.37555 7.0001 10.23C6.61107 11.0947 6.27707 11.9831 6.0001 12.89ZM10.8201 16.94C10.1377 17.5605 9.34822 18.0518 8.4901 18.39C8.2595 18.5028 8.00793 18.5664 7.75141 18.5768C7.49489 18.5871 7.23903 18.5439 7.0001 18.45C6.3501 18.07 6.0701 16.61 6.4401 14.65C6.4401 14.42 6.5401 14.19 6.6001 13.96C7.523 14.1583 8.4586 14.2919 9.4001 14.36C9.946 15.1336 10.5405 15.8718 11.1801 16.57L10.7901 16.94H10.8201ZM11.8201 15.94C11.3786 15.4612 10.9614 14.9606 10.5701 14.44H11.7901C11.7901 14.44 12.6301 14.44 13.0401 14.44C12.6601 15 12.2501 15.45 11.8201 15.93V15.94ZM17.2101 17.18C17.193 17.4305 17.1237 17.6748 17.0066 17.8969C16.8895 18.1191 16.7272 18.3143 16.5301 18.47C15.8801 18.85 14.4801 18.36 12.9701 17.06L12.4401 16.59C13.0728 15.8929 13.6543 15.1509 14.1801 14.37C15.1297 14.2934 16.0723 14.1464 17.0001 13.93C17.0001 14.1 17.0801 14.27 17.1101 14.43C17.3134 15.3292 17.3473 16.2584 17.2101 17.17V17.18ZM18.0001 12.73L17.6401 12.84C17.3552 11.9387 17.0043 11.0596 16.5901 10.21C16.9819 9.36693 17.316 8.49827 17.5901 7.60998L18.2101 7.79998C20.1401 8.45998 21.4901 9.44998 21.4901 10.2C21.4901 10.95 20.0001 12.05 18.0001 12.73ZM11.8201 12.11C12.1926 12.1041 12.555 11.9882 12.8618 11.777C13.1687 11.5657 13.4062 11.2685 13.5447 10.9227C13.6832 10.5769 13.7163 10.1978 13.6401 9.83322C13.5638 9.46859 13.3814 9.13464 13.116 8.87331C12.8505 8.61198 12.5137 8.43493 12.1479 8.3644C11.7821 8.29388 11.4037 8.33302 11.0601 8.47691C10.7165 8.62079 10.423 8.86302 10.2167 9.17314C10.0103 9.48327 9.90014 9.84747 9.9001 10.22C9.9001 10.4682 9.94898 10.714 10.044 10.9433C10.1389 11.1726 10.2782 11.3809 10.4537 11.5564C10.6292 11.7319 10.8375 11.8711 11.0668 11.9661C11.2961 12.0611 11.5419 12.11 11.7901 12.11H11.8201ZM2.2801 21.83C2.46601 21.767 2.62623 21.645 2.73636 21.4825C2.84648 21.32 2.90047 21.126 2.8901 20.93C2.89894 20.7964 2.87913 20.6624 2.832 20.5371C2.78487 20.4118 2.71151 20.2979 2.61683 20.2033C2.52215 20.1086 2.40833 20.0352 2.28299 19.9881C2.15766 19.941 2.02371 19.9211 1.8901 19.93H0.600098V23.09H1.0901V21.91H1.7801L2.4201 23.12H3.0001L2.2801 21.83ZM1.7901 21.49H1.0901V20.39H1.7801C1.85751 20.3798 1.9362 20.3866 2.01074 20.4098C2.08529 20.433 2.15392 20.4721 2.2119 20.5244C2.26988 20.5766 2.31584 20.6409 2.3466 20.7126C2.37737 20.7844 2.39221 20.8619 2.3901 20.94C2.39372 21.0175 2.38025 21.095 2.35066 21.1667C2.32106 21.2385 2.27605 21.3029 2.21881 21.3554C2.16157 21.4079 2.0935 21.4471 2.01942 21.4704C1.94534 21.4936 1.86705 21.5003 1.7901 21.49ZM5.1801 22.05V21.89C5.1801 21.14 4.7801 20.68 4.1101 20.68C3.95176 20.6787 3.79499 20.7113 3.65031 20.7757C3.50562 20.84 3.37637 20.9345 3.27124 21.0529C3.1661 21.1713 3.08751 21.3108 3.04075 21.4621C2.99398 21.6134 2.98012 21.7729 3.0001 21.93C2.97982 22.0861 2.99361 22.2448 3.04051 22.3951C3.08742 22.5454 3.16633 22.6837 3.27181 22.8006C3.37729 22.9175 3.50685 23.0102 3.65156 23.0722C3.79627 23.1342 3.95271 23.1642 4.1101 23.16C4.32941 23.1707 4.54617 23.109 4.7269 22.9843C4.90763 22.8596 5.04229 22.6788 5.1101 22.47H4.7001C4.64397 22.5689 4.56002 22.6491 4.45868 22.7006C4.35734 22.7522 4.24307 22.7728 4.1301 22.76C4.04215 22.7617 3.95482 22.7449 3.87374 22.7108C3.79266 22.6767 3.71962 22.6259 3.65934 22.5619C3.59905 22.4978 3.55284 22.4218 3.52369 22.3389C3.49454 22.2559 3.4831 22.1677 3.4901 22.08L5.1801 22.05ZM4.1101 21.05C4.1901 21.047 4.26985 21.0609 4.34413 21.0907C4.41842 21.1206 4.48558 21.1658 4.54124 21.2233C4.59691 21.2809 4.63982 21.3495 4.66719 21.4247C4.69456 21.5 4.70577 21.5801 4.7001 21.66H3.4901C3.50035 21.5035 3.57049 21.357 3.68594 21.2508C3.8014 21.1447 3.9533 21.0871 4.1101 21.09V21.05ZM6.3401 20.64C5.8001 20.64 5.4101 20.91 5.3401 21.32H5.8001C5.8001 21.15 6.0301 21.05 6.3001 21.05C6.5701 21.05 6.7801 21.2 6.7801 21.45V21.65H6.1401C5.5701 21.65 5.2501 21.93 5.2501 22.36C5.25102 22.4612 5.27297 22.5611 5.31457 22.6534C5.35617 22.7456 5.41649 22.8282 5.49172 22.896C5.56695 22.9637 5.65544 23.015 5.75157 23.0467C5.84769 23.0783 5.94935 23.0897 6.0501 23.08C6.19164 23.0861 6.33224 23.0541 6.45715 22.9872C6.58207 22.9204 6.6867 22.8212 6.7601 22.7V23.04H7.2101V21.49C7.2701 21 6.9301 20.68 6.3401 20.68V20.64ZM6.8001 22.2C6.79508 22.2745 6.7752 22.3473 6.74163 22.414C6.70807 22.4807 6.6615 22.5401 6.60466 22.5885C6.54782 22.637 6.48186 22.6736 6.41066 22.6961C6.33947 22.7187 6.26447 22.7268 6.1901 22.72C5.9301 22.72 5.7401 22.59 5.7401 22.38C5.7401 22.17 5.8901 22.06 6.2201 22.04H6.8001V22.2ZM9.1701 21.47C9.13756 21.3468 9.0625 21.239 8.95818 21.1658C8.85387 21.0926 8.72703 21.0587 8.6001 21.07C8.2101 21.07 7.9701 21.37 7.9701 21.88C7.9701 22.39 8.2101 22.7 8.6001 22.7C8.72637 22.716 8.85414 22.6852 8.9592 22.6133C9.06425 22.5414 9.13929 22.4335 9.1701 22.31H9.6301C9.59767 22.5468 9.47621 22.7625 9.29044 22.9129C9.10466 23.0634 8.86853 23.1375 8.6301 23.12C8.47092 23.1259 8.31237 23.0969 8.16563 23.0349C8.01888 22.9729 7.8875 22.8796 7.78073 22.7613C7.67396 22.6431 7.5944 22.503 7.54764 22.3507C7.50088 22.1984 7.48807 22.0377 7.5101 21.88C7.49467 21.7279 7.51141 21.5742 7.55923 21.429C7.60706 21.2838 7.6849 21.1503 7.78769 21.0371C7.89049 20.9239 8.01594 20.8336 8.15591 20.7721C8.29587 20.7106 8.44721 20.6792 8.6001 20.68C8.83833 20.6765 9.06997 20.7582 9.2533 20.9104C9.43664 21.0626 9.55962 21.2752 9.6001 21.51L9.1701 21.47ZM10.5001 20.1V20.7H11.0001V21.1H10.5001V22.33C10.5001 22.57 10.6001 22.68 10.8401 22.68H11.0001V23.07C10.9171 23.0804 10.8331 23.0804 10.7501 23.07C10.2301 23.07 10.0201 22.89 10.0201 22.43V21.14H9.6501V20.74H10.0001V20.14L10.5001 20.1ZM12.1801 23.1V20H12.6201L14.2401 22.24V20H14.7101V23.16H14.2701L12.6501 20.91V23.16L12.1801 23.1ZM16.0901 20.66C15.5501 20.66 15.1601 20.93 15.0901 21.34H15.5501C15.5501 21.17 15.7801 21.07 16.0501 21.07C16.3201 21.07 16.5301 21.22 16.5301 21.47V21.67H15.8901C15.3201 21.67 15.0001 21.95 15.0001 22.38C15.001 22.4812 15.023 22.5811 15.0646 22.6734C15.1062 22.7656 15.1665 22.8482 15.2417 22.916C15.317 22.9837 15.4054 23.035 15.5016 23.0667C15.5977 23.0983 15.6994 23.1097 15.8001 23.1C15.9416 23.1061 16.0822 23.0741 16.2072 23.0072C16.3321 22.9404 16.4367 22.8412 16.5101 22.72V23.06H17.0001V21.49C17.0001 21 16.6901 20.68 16.0901 20.68V20.66ZM16.5501 22.22C16.5451 22.2945 16.5252 22.3673 16.4916 22.434C16.4581 22.5007 16.4115 22.5601 16.3547 22.6085C16.2978 22.657 16.2319 22.6936 16.1607 22.7161C16.0895 22.7387 16.0145 22.7468 15.9401 22.74C15.6801 22.74 15.4901 22.61 15.4901 22.4C15.4901 22.19 15.6401 22.08 15.9701 22.06H16.5501V22.22ZM18.0001 20.14V20.74H18.5201V21.14H18.0001V22.37C18.0001 22.61 18.1101 22.72 18.3401 22.72H18.5201V23.11C18.4338 23.1213 18.3464 23.1213 18.2601 23.11C17.7401 23.11 17.5301 22.93 17.5301 22.47V21.14H17.1501V20.74H17.5301V20.14H18.0001ZM18.6801 20.03C18.674 19.9673 18.6872 19.9043 18.7178 19.8493C18.7484 19.7943 18.7951 19.7499 18.8515 19.7221C18.908 19.6942 18.9716 19.6842 19.0339 19.6934C19.0961 19.7026 19.1542 19.7305 19.2002 19.7735C19.2462 19.8164 19.278 19.8724 19.2915 19.9339C19.3049 19.9954 19.2994 20.0595 19.2755 20.1178C19.2516 20.176 19.2105 20.2256 19.1578 20.2599C19.105 20.2943 19.043 20.3117 18.9801 20.31C18.9386 20.313 18.897 20.307 18.858 20.2925C18.8191 20.2779 18.7837 20.2552 18.7543 20.2258C18.7249 20.1964 18.7022 20.161 18.6876 20.122C18.6731 20.0831 18.6671 20.0415 18.6701 20L18.6801 20.03ZM18.7501 20.73H19.2201V23.12H18.7501V20.73ZM20.7501 23.12H20.2501L19.3901 20.73H19.8901L20.4801 22.61L21.0701 20.73H21.5701L20.7501 23.12ZM23.7501 22.05V21.89C23.7719 21.7379 23.7603 21.5829 23.7162 21.4357C23.6722 21.2885 23.5966 21.1527 23.4949 21.0376C23.3931 20.9225 23.2675 20.8309 23.1268 20.7692C22.9861 20.7074 22.8337 20.677 22.6801 20.68C22.5226 20.6801 22.367 20.7138 22.2235 20.7788C22.08 20.8437 21.952 20.9385 21.8479 21.0567C21.7439 21.1749 21.6662 21.3139 21.62 21.4645C21.5738 21.6151 21.5602 21.7738 21.5801 21.93C21.5582 22.0856 21.5705 22.244 21.6162 22.3944C21.6619 22.5447 21.7398 22.6833 21.8445 22.8004C21.9493 22.9175 22.0783 23.0103 22.2226 23.0724C22.3669 23.1345 22.523 23.1644 22.6801 23.16C22.8994 23.1707 23.1162 23.109 23.2969 22.9843C23.4776 22.8596 23.6123 22.6788 23.6801 22.47H23.2201C23.1678 22.5699 23.086 22.6513 22.9858 22.7032C22.8856 22.7551 22.7719 22.7749 22.6601 22.76C22.5721 22.7617 22.4848 22.7449 22.4037 22.7108C22.3227 22.6767 22.2496 22.6259 22.1893 22.5619C22.129 22.4978 22.0828 22.4218 22.0537 22.3389C22.0245 22.2559 22.0131 22.1677 22.0201 22.08L23.7501 22.05ZM22.6801 21.05C22.7597 21.0485 22.8387 21.0634 22.9123 21.0938C22.9859 21.1242 23.0524 21.1694 23.1078 21.2267C23.1631 21.2839 23.2061 21.3519 23.234 21.4264C23.2619 21.501 23.2742 21.5805 23.2701 21.66H22.0001C22.0103 21.5052 22.079 21.3602 22.1923 21.2543C22.3056 21.1484 22.455 21.0897 22.6101 21.09L22.6801 21.05Z" fill="#61DAFB"/>
</g>
<defs>
<clipPath id="clip0_40_273">
<rect width="24" height="24" fill="white"/>
</clipPath>
</defs>
</svg>
