<svg width="50" height="50" viewBox="0 0 50 50" fill="none" xmlns="http://www.w3.org/2000/svg">
<rect width="50" height="50" rx="15" fill="#7A30A5"/>
<g clip-path="url(#clip0_48_274)">
<path d="M43.7125 21.0875L39.4419 5.19995L23.4938 9.4587L21.1344 13.6068L16.355 13.5725L4.6875 25.2031L16.3563 36.8306L21.1425 36.795L23.505 40.9431L39.4425 45.1993L43.7125 29.3131L41.2875 25.2L43.7125 21.0875ZM33.7125 11.15L26.7225 23.2375H12.7275L21.5363 14.275L33.7125 11.15ZM26.7225 27.1656L33.72 39.2518L21.5281 36.1193L12.7188 27.1687H26.7138L26.7225 27.1656ZM30.14 25.2031L37.1375 13.1156L40.5206 25.2031L37.1375 37.2875L30.14 25.2031Z" fill="#222C37"/>
</g>
<defs>
<clipPath id="clip0_48_274">
<rect width="40" height="40" fill="white" transform="translate(4.19995 5.19995)"/>
</clipPath>
</defs>
</svg>
