<svg width="64" height="64" viewBox="0 0 64 64" fill="none" xmlns="http://www.w3.org/2000/svg">
<g clip-path="url(#clip0_42_273)">
<path d="M63.22 25.42L56.387 0L30.87 6.814L27.095 13.451L19.448 13.396L0.780029 32.005L19.45 50.609L27.108 50.552L30.888 57.189L56.388 63.999L63.22 38.581L59.34 32L63.22 25.42ZM47.22 9.52L36.036 28.86H13.644L27.738 14.52L47.22 9.52ZM36.036 35.145L47.232 54.483L27.725 49.471L13.63 35.15H36.022L36.036 35.145ZM41.504 32.005L52.7 12.665L58.113 32.005L52.7 51.34L41.504 32.005Z" fill="#222C37"/>
<path d="M27.0932 13.701L27.2398 13.702L27.3123 13.5746L31.0356 7.02854L56.2104 0.305929L62.9513 25.3835L59.1247 31.873L59.0498 32L59.1247 32.127L62.9513 38.6175L56.2114 63.6931L31.0535 56.9744L27.3253 50.4283L27.2527 50.3009L27.1062 50.302L19.5526 50.3582L1.13418 32.005L19.5506 13.6467L27.0932 13.701ZM47.4365 9.64515L47.7344 9.12988L47.1579 9.27785L27.6759 14.2778L27.6085 14.2951L27.5597 14.3448L13.4657 28.6848L13.0478 29.11H13.644H36.036H36.1803L36.2524 28.9852L47.4365 9.64515ZM36.2524 35.0197L36.148 34.8395L35.9787 34.9H13.63H13.0332L13.4519 35.3254L27.5469 49.6464L27.5956 49.6959L27.6628 49.7131L47.1698 54.7251L47.7469 54.8734L47.4484 54.3577L36.2524 35.0197ZM41.2877 31.8797L41.2152 32.005L41.2877 32.1303L52.4837 51.4653L52.7809 51.9785L52.9408 51.4074L58.3538 32.0724L58.3726 32.005L58.3538 31.9376L52.9408 12.5976L52.7809 12.0263L52.4837 12.5397L41.2877 31.8797Z" stroke="#F2F2F2" stroke-opacity="0.4" stroke-width="0.5"/>
</g>
<defs>
<clipPath id="clip0_42_273">
<rect width="64" height="64" fill="white"/>
</clipPath>
</defs>
</svg>
