<svg width="64" height="64" viewBox="0 0 64 64" fill="none" xmlns="http://www.w3.org/2000/svg">
<g clip-path="url(#clip0_42_273)">
<path d="M63.22 25.42L56.387 0L30.87 6.814L27.095 13.451L19.448 13.396L0.780029 32.005L19.45 50.609L27.108 50.552L30.888 57.189L56.388 63.999L63.22 38.581L59.34 32L63.22 25.42ZM47.22 9.52L36.036 28.86H13.644L27.738 14.52L47.22 9.52ZM36.036 35.145L47.232 54.483L27.725 49.471L13.63 35.15H36.022L36.036 35.145ZM41.504 32.005L52.7 12.665L58.113 32.005L52.7 51.34L41.504 32.005Z" fill="#222C37"/>
<path d="M27.0939 13.601L27.1819 13.6016L27.2254 13.5252L30.9694 6.94273L56.281 0.183558L63.0588 25.3981L59.2108 31.9238L59.1659 32L59.2108 32.0762L63.0588 38.6029L56.282 63.8154L30.9873 57.0603L27.2384 50.4778L27.1948 50.4013L27.1069 50.402L19.5115 50.4585L0.992519 32.005L19.5096 13.5464L27.0939 13.601ZM47.3499 9.59509L47.5287 9.28593L47.1827 9.37471L27.7007 14.3747L27.6603 14.3851L27.6311 14.4149L13.5371 28.7549L13.2863 29.01H13.644H36.036H36.1226L36.1659 28.9351L47.3499 9.59509ZM36.1658 35.0698L36.1032 34.9617L35.996 35H13.63H13.2719L13.5231 35.2552L27.6181 49.5762L27.6473 49.6059L27.6877 49.6163L47.1947 54.6283L47.541 54.7173L47.3618 54.4078L36.1658 35.0698ZM41.3742 31.9298L41.3307 32.005L41.3742 32.0802L52.5702 51.4152L52.7485 51.7231L52.8445 51.3804L58.2575 32.0454L58.2688 32.005L58.2575 31.9646L52.8445 12.6246L52.7485 12.2818L52.5702 12.5898L41.3742 31.9298Z" stroke="#F2F2F2" stroke-opacity="0.4" stroke-width="0.3"/>
</g>
<defs>
<clipPath id="clip0_42_273">
<rect width="64" height="64" fill="white"/>
</clipPath>
</defs>
</svg>
