<svg width="64" height="64" viewBox="0 0 64 64" fill="none" xmlns="http://www.w3.org/2000/svg">
<g clip-path="url(#clip0_42_273)">
<path d="M63.22 25.42L56.387 0L30.87 6.814L27.095 13.451L19.448 13.396L0.780029 32.005L19.45 50.609L27.108 50.552L30.888 57.189L56.388 63.999L63.22 38.581L59.34 32L63.22 25.42ZM47.22 9.52L36.036 28.86H13.644L27.738 14.52L47.22 9.52ZM36.036 35.145L47.232 54.483L27.725 49.471L13.63 35.15H36.022L36.036 35.145ZM41.504 32.005L52.7 12.665L58.113 32.005L52.7 51.34L41.504 32.005Z" fill="#222C37"/>
<path d="M27.0914 13.951L27.3847 13.9531L27.5296 13.6982L31.2012 7.24309L56.0338 0.611859L62.6826 25.347L58.9093 31.746L58.7596 32L58.9093 32.2539L62.6827 38.654L56.0347 63.3871L31.219 56.7599L27.5425 50.3046L27.3974 50.0498L27.1043 50.052L19.6551 50.1075L1.48832 32.0049L19.6532 13.8975L27.0914 13.951ZM47.6529 9.7703L48.2488 8.73976L47.0957 9.0357L27.6137 14.0357L27.479 14.0703L27.3814 14.1695L13.2874 28.5095L12.4515 29.36H13.644H36.036H36.3245L36.4689 29.1103L47.6529 9.7703ZM36.4687 34.8945L36.2601 34.534L35.9354 34.65H13.63H12.4364L13.2737 35.5007L27.3687 49.8217L27.4661 49.9207L27.6006 49.9553L47.1076 54.9673L48.2619 55.2638L47.6647 54.2325L36.4687 34.8945ZM41.0713 31.7545L40.9263 32.005L41.0713 32.2556L52.2673 51.5906L52.8617 52.6171L53.1815 51.4748L58.5945 32.1398L58.6322 32.005L58.5945 31.8702L53.1815 12.5302L52.8617 11.3877L52.2673 12.4145L41.0713 31.7545Z" stroke="white" stroke-opacity="0.6"/>
</g>
<defs>
<clipPath id="clip0_42_273">
<rect width="64" height="64" fill="white"/>
</clipPath>
</defs>
</svg>
