<svg width="90" height="90" viewBox="0 0 90 90" fill="none" xmlns="http://www.w3.org/2000/svg">
<rect width="90" height="90" rx="20" fill="#7A30A5"/>
<g clip-path="url(#clip0_48_274)">
<path d="M73.0979 39.078L66.9482 16.2L43.9829 22.3326L40.5854 28.3059L33.7031 28.2564L16.9019 45.0045L33.7049 61.7481L40.5971 61.6967L43.9991 67.67L66.9491 73.7991L73.0979 50.9229L69.6059 45L73.0979 39.078ZM58.6979 24.768L48.6323 42.174H28.4795L41.1641 29.268L58.6979 24.768ZM48.6323 47.8305L58.7087 65.2347L41.1524 60.7239L28.4669 47.835H48.6197L48.6323 47.8305ZM53.5535 45.0045L63.6299 27.5985L68.5016 45.0045L63.6299 62.406L53.5535 45.0045Z" fill="#222C37"/>
</g>
<defs>
<clipPath id="clip0_48_274">
<rect width="57.6" height="57.6" fill="white" transform="translate(16.2 16.2)"/>
</clipPath>
</defs>
</svg>
